<?xml version="1.0" standalone="no"?>
<!DOCTYPE svg PUBLIC "-//W3C//DTD SVG 20010904//EN"
 "http://www.w3.org/TR/2001/REC-SVG-20010904/DTD/svg10.dtd">
<svg version="1.0" xmlns="http://www.w3.org/2000/svg"
 width="1024.000000pt" height="1024.000000pt" viewBox="0 0 1024.000000 1024.000000"
 preserveAspectRatio="xMidYMid meet">
<metadata>
Created by potrace 1.14, written by Peter Selinger 2001-2017
</metadata>
<g transform="translate(0.000000,1024.000000) scale(0.100000,-0.100000)"
fill="#000000" stroke="none">
<path d="M2559 7908 c0 -7 -2 -20 -4 -28 -1 -8 -6 -46 -9 -85 -7 -66 -10 -94
-21 -175 -7 -51 -21 -164 -30 -245 -3 -27 -8 -61 -10 -75 -3 -14 -7 -53 -10
-88 -4 -35 -8 -73 -11 -85 -2 -12 -6 -49 -9 -82 -3 -33 -8 -67 -10 -75 -2 -8
-7 -44 -10 -80 -3 -36 -8 -78 -10 -95 -4 -27 -8 -57 -20 -170 -2 -16 -4 -30
-5 -30 -1 0 -3 -13 -4 -30 -8 -74 -18 -162 -21 -185 -8 -48 -17 -135 -17 -152
1 -30 -13 -20 -64 45 -26 34 -51 64 -54 67 -3 3 -21 25 -40 50 -19 25 -37 47
-40 50 -3 3 -19 23 -36 45 -16 22 -39 51 -50 65 -22 25 -169 211 -212 267 -12
16 -33 43 -46 59 -14 16 -83 103 -155 194 -71 91 -136 172 -144 180 -7 8 -27
33 -43 55 -28 39 -42 56 -83 104 -12 13 -21 27 -21 30 0 3 -15 22 -33 41 -18
19 -38 43 -43 53 -10 18 -47 -7 -261 -180 -21 -17 -95 -77 -165 -132 -71 -56
-128 -105 -128 -108 0 -3 12 -20 27 -37 16 -18 40 -48 54 -67 15 -19 102 -128
193 -244 92 -115 179 -226 194 -245 15 -19 37 -45 49 -57 12 -13 20 -23 17
-23 -3 0 7 -12 21 -27 14 -16 28 -36 31 -45 3 -10 9 -18 14 -18 5 0 22 -19 39
-42 16 -24 37 -52 48 -63 10 -11 37 -45 60 -75 23 -30 54 -68 68 -84 14 -16
25 -32 25 -35 0 -3 16 -24 35 -46 19 -22 39 -44 43 -50 4 -5 34 -44 66 -85 33
-41 64 -81 70 -89 9 -11 -1 -12 -59 -7 -39 3 -81 8 -95 10 -23 4 -112 13 -205
21 -23 2 -52 6 -66 8 -13 3 -60 8 -104 12 -44 4 -91 9 -105 11 -14 3 -45 7
-70 9 -25 3 -70 7 -100 10 -30 3 -74 8 -98 11 -23 2 -62 6 -87 9 -25 3 -65 7
-90 10 -25 3 -66 7 -93 10 -26 3 -67 8 -92 11 -25 2 -65 7 -90 10 -25 3 -67 7
-95 10 -27 2 -64 6 -81 9 -16 2 -65 7 -107 11 -71 6 -77 5 -78 -12 0 -20 -4
-48 -14 -129 -4 -27 -9 -66 -11 -85 -3 -19 -7 -55 -10 -80 -8 -77 -11 -103
-18 -155 -3 -27 -8 -70 -11 -95 -3 -25 -8 -64 -10 -86 -4 -30 -2 -42 7 -41 7
1 49 -2 93 -7 110 -12 124 -13 170 -19 22 -3 69 -8 105 -12 36 -3 83 -8 105
-11 22 -3 58 -7 80 -9 53 -4 154 -15 185 -20 14 -2 61 -7 105 -11 44 -3 82 -8
85 -9 3 -2 41 -6 85 -10 44 -4 88 -9 97 -10 9 -2 48 -7 85 -10 37 -4 79 -8 93
-10 14 -3 57 -7 95 -10 39 -3 81 -8 95 -10 41 -7 132 -17 172 -19 41 -3 59
-13 41 -24 -7 -4 -29 -22 -50 -39 -21 -17 -123 -99 -228 -182 -104 -83 -217
-172 -250 -198 -33 -27 -61 -51 -63 -55 -2 -5 -8 -8 -13 -8 -5 0 -20 -9 -32
-20 -19 -18 -131 -108 -242 -195 -33 -26 -231 -183 -275 -218 -8 -7 -54 -43
-102 -81 -91 -72 -94 -78 -55 -118 7 -7 26 -31 42 -53 17 -22 32 -42 35 -45 3
-3 73 -89 155 -193 135 -170 167 -202 177 -179 2 4 30 29 63 55 33 26 77 62
99 79 21 18 46 37 55 42 9 5 23 18 32 28 9 10 19 18 23 18 3 0 16 9 28 19 13
11 97 79 188 151 91 72 172 136 180 143 8 7 35 28 60 47 25 19 47 37 50 40 3
3 23 19 45 35 22 17 42 32 45 35 3 4 104 84 225 180 121 96 225 179 232 185
15 12 24 19 83 65 25 19 50 39 57 45 7 5 18 15 25 20 85 67 304 241 308 245 3
3 45 37 95 75 49 39 97 76 105 83 8 7 35 29 60 48 25 20 54 43 65 52 11 10 37
29 57 44 20 15 42 33 50 40 7 7 31 26 53 43 22 16 45 34 52 40 6 5 26 21 44
35 18 14 37 30 43 35 6 6 40 32 76 60 36 27 74 57 85 66 71 62 94 79 104 79 6
0 11 3 11 8 0 4 32 32 71 62 39 30 121 96 183 145 62 50 125 99 140 110 16 11
36 27 45 36 9 8 68 55 131 104 63 49 117 92 120 95 3 3 84 68 180 144 96 76
184 145 195 155 11 9 52 41 90 71 39 30 75 59 81 65 6 5 27 21 47 35 20 14 37
30 37 36 0 9 -63 93 -124 164 -11 14 -34 43 -51 65 -16 22 -34 45 -40 51 -5 6
-53 65 -105 132 l-95 120 -45 -36 c-25 -20 -47 -39 -50 -42 -3 -3 -21 -17 -42
-32 -20 -15 -42 -33 -50 -40 -7 -7 -42 -35 -78 -62 -36 -27 -69 -54 -75 -60
-5 -6 -37 -31 -70 -56 -33 -25 -65 -49 -71 -55 -6 -5 -57 -46 -114 -90 -56
-44 -116 -92 -132 -107 -16 -16 -33 -28 -38 -28 -6 0 -10 -4 -10 -10 0 -5 -7
-10 -15 -10 -8 0 -15 -4 -15 -8 0 -5 -21 -23 -46 -41 -25 -18 -56 -43 -69 -55
-13 -11 -37 -31 -52 -42 -112 -86 -379 -300 -385 -309 -4 -5 -5 10 -2 35 3 25
7 63 9 85 2 22 6 54 9 70 2 17 7 59 11 95 4 36 8 76 10 90 2 14 6 50 10 80 3
30 8 67 11 81 2 14 6 52 9 85 3 32 8 70 10 84 8 57 15 108 20 155 3 28 8 70
11 95 7 52 9 72 18 155 4 33 9 71 11 85 5 34 15 116 20 167 6 55 34 286 41
327 4 29 2 32 -23 34 -16 1 -44 4 -63 7 -19 3 -66 8 -105 11 -38 3 -81 7 -95
10 -14 3 -50 7 -80 10 -30 2 -68 6 -85 8 -16 3 -57 7 -90 10 -33 4 -79 9 -102
11 -31 4 -43 2 -44 -7z"/>
<path d="M5395 6698 c-15 -13 -35 -30 -44 -38 -9 -8 -43 -35 -76 -60 -33 -25
-67 -52 -76 -60 -19 -16 -20 -17 -89 -70 -25 -19 -47 -37 -50 -40 -3 -3 -36
-30 -75 -60 -38 -30 -75 -59 -81 -65 -6 -5 -26 -21 -44 -35 -79 -60 -155 -123
-158 -131 -2 -5 -9 -9 -16 -9 -6 0 -19 -8 -28 -17 -8 -10 -30 -29 -49 -43 -18
-14 -38 -31 -45 -37 -7 -7 -17 -13 -22 -13 -6 0 -12 -4 -14 -8 -1 -5 -57 -51
-123 -103 -66 -51 -122 -96 -125 -99 -3 -3 -59 -48 -125 -100 -66 -51 -122
-97 -125 -100 -3 -3 -23 -19 -45 -35 -22 -17 -42 -32 -45 -35 -3 -3 -38 -31
-77 -63 -40 -31 -106 -83 -145 -114 -40 -32 -75 -60 -78 -63 -3 -3 -34 -27
-70 -55 -68 -52 -87 -67 -123 -99 -12 -10 -49 -39 -82 -64 -33 -26 -67 -52
-75 -59 -8 -6 -42 -33 -75 -60 -33 -26 -61 -51 -63 -55 -2 -4 -8 -8 -13 -8 -5
0 -17 -8 -27 -17 -21 -20 -34 -31 -102 -83 -25 -19 -47 -37 -50 -40 -3 -3 -45
-37 -95 -75 -49 -39 -98 -77 -107 -85 -9 -8 -23 -20 -30 -25 -39 -30 -105 -82
-123 -97 -18 -15 -332 -264 -419 -333 -106 -83 -161 -128 -166 -134 -3 -4 -21
-18 -40 -31 -19 -13 -37 -27 -40 -30 -3 -3 -59 -48 -125 -100 -66 -52 -125
-99 -131 -105 -6 -5 -57 -46 -114 -90 -57 -44 -130 -103 -164 -130 -34 -28
-85 -68 -114 -90 -28 -21 -52 -43 -52 -47 0 -4 -6 -8 -14 -8 -8 0 -16 -3 -18
-7 -1 -5 -50 -45 -108 -91 -58 -46 -114 -91 -125 -100 -11 -9 -51 -41 -90 -71
-38 -30 -72 -57 -75 -61 -3 -3 -20 -16 -38 -29 l-32 -23 19 -26 c10 -15 96
-124 190 -242 179 -224 180 -226 221 -276 14 -17 39 -48 55 -69 66 -85 56 -80
95 -47 29 24 156 125 335 267 17 13 40 32 52 42 12 10 45 36 73 58 74 57 170
133 206 164 18 14 47 37 65 51 18 14 62 49 98 77 37 29 71 56 76 61 6 4 55 44
110 87 55 44 104 83 110 88 5 4 21 17 35 28 14 12 50 40 80 63 30 22 60 46 65
52 6 6 62 51 125 100 63 49 120 93 126 99 6 5 28 24 49 40 185 145 441 351
443 357 2 5 8 8 14 8 6 0 18 8 27 18 9 10 32 29 51 42 19 13 41 30 48 37 7 7
41 34 75 60 34 26 64 50 67 53 3 3 25 21 50 40 25 19 54 43 65 52 11 9 61 48
110 87 50 39 96 76 104 82 22 19 126 102 157 126 34 26 55 43 174 138 48 39
103 83 123 98 20 16 143 114 274 219 131 104 251 199 266 211 103 80 152 121
155 128 2 5 10 9 18 9 8 0 14 4 14 8 0 4 18 19 40 32 22 14 40 28 40 31 0 4
26 26 57 50 64 48 89 68 109 88 19 17 51 8 94 -29 29 -24 224 -175 353 -273
16 -12 40 -31 53 -42 13 -11 63 -49 110 -85 48 -36 122 -93 165 -127 43 -35
80 -63 84 -63 3 0 13 -8 23 -17 10 -10 29 -25 41 -33 22 -14 39 -28 89 -71 12
-10 22 -16 22 -12 0 4 6 0 13 -9 11 -14 236 -189 512 -397 55 -42 102 -78 105
-81 3 -3 25 -21 50 -40 25 -19 47 -37 50 -40 3 -3 60 -47 128 -98 68 -51 131
-99 140 -107 22 -18 280 -216 357 -275 33 -25 66 -51 75 -57 8 -7 71 -56 140
-109 69 -52 137 -105 152 -117 14 -12 36 -29 48 -37 12 -8 34 -25 48 -38 15
-12 45 -35 67 -50 21 -15 46 -34 55 -42 9 -8 31 -26 50 -40 75 -56 106 -80
121 -95 9 -8 19 -15 22 -15 6 0 30 -19 71 -55 6 -5 58 -46 116 -90 58 -44 110
-83 115 -87 30 -25 136 -106 159 -122 15 -11 35 -27 45 -35 10 -9 33 -27 52
-41 18 -14 74 -56 124 -95 50 -38 108 -83 130 -100 22 -16 45 -34 52 -40 6 -5
24 -20 40 -32 15 -11 73 -56 128 -98 l100 -77 28 34 c16 18 36 44 45 58 10 14
45 61 80 105 34 44 66 85 70 90 4 6 37 48 72 95 36 47 68 87 71 90 3 3 42 54
87 113 l82 108 -163 125 c-89 69 -195 150 -236 182 -40 31 -80 63 -90 69 -44
34 -148 114 -160 124 -7 7 -34 28 -60 47 -25 19 -47 39 -49 44 -2 4 -8 8 -13
8 -5 0 -72 50 -149 110 -77 60 -142 110 -145 110 -3 0 -13 8 -24 18 -10 9 -31
27 -47 39 -16 12 -38 29 -49 37 -24 19 -210 162 -251 193 -48 37 -73 56 -127
99 -75 59 -302 233 -447 343 -69 52 -127 97 -130 100 -3 3 -32 26 -65 51 -33
25 -62 47 -65 50 -3 3 -25 21 -50 40 -25 19 -46 38 -48 42 -2 4 -8 8 -14 8 -6
0 -25 12 -43 28 -64 53 -108 87 -124 96 -9 5 -18 12 -21 16 -5 6 -145 114
-220 170 -19 14 -42 33 -52 43 -10 9 -22 17 -28 17 -5 0 -13 6 -17 13 -4 6
-26 24 -48 39 -22 15 -55 41 -73 58 -18 16 -37 30 -41 30 -5 0 -19 10 -32 23
-13 12 -51 43 -84 67 -71 53 -93 71 -110 88 -8 6 -18 12 -23 12 -6 0 -12 4
-14 8 -1 5 -32 31 -68 58 -36 26 -67 51 -70 54 -3 3 -41 32 -85 65 -44 32 -87
66 -96 75 -8 8 -32 26 -52 40 -20 14 -37 28 -37 33 0 4 -5 7 -11 7 -6 0 -28
14 -48 30 -20 17 -40 34 -46 38 -23 17 -100 77 -105 82 -3 3 -49 38 -103 79
-54 41 -104 79 -110 85 -7 7 -28 23 -47 36 -19 13 -40 29 -47 35 -20 16 -33
27 -123 95 -47 36 -90 70 -96 75 -6 6 -23 19 -38 30 -68 49 -163 122 -186 143
-14 12 -43 35 -65 50 -22 15 -46 33 -53 40 -17 16 -16 16 -47 -10z"/>
</g>
</svg>
