<?xml version="1.0" encoding="UTF-8"?>
<svg id="Ebene_1" data-name="Ebene 1" xmlns="http://www.w3.org/2000/svg" viewBox="0 0 81.93 50.77">
  <defs>
    <style>
      .cls-1 {
        fill: #f69800;
      }

      .cls-1, .cls-2 {
        stroke-width: 0px;
      }

      .cls-2 {
        fill: #fff;
      }
    </style>
  </defs>
  <path class="cls-2" d="M18.27,48.77c-.75,0-1.1-.17-1.1-1.06v-1.09h1.2v.7c0,.29.06.3.31.3h1.95c.25,0,.31,0,.31-.3v-1.28c0-.29-.06-.3-.31-.3h-2.37c-.75,0-1.1-.17-1.1-1.06v-2.07c0-.89.35-1.06,1.1-1.06h2.77c.75,0,1.1.17,1.1,1.06v1.09h-1.2v-.7c0-.29-.06-.3-.31-.3h-1.95c-.25,0-.31,0-.31.3v1.29c0,.29.06.3.31.3h2.37c.75,0,1.1.17,1.1,1.06v2.06c0,.89-.35,1.06-1.1,1.06h-2.77Z"/>
  <path class="cls-2" d="M24.34,48.77c-.75,0-1.1-.17-1.1-1.06v-3.38c0-.89.35-1.06,1.1-1.06h2.43c.75,0,1.1.17,1.1,1.06v3.38c0,.89-.35,1.06-1.1,1.06h-2.43ZM26.67,44.72c0-.29-.06-.3-.31-.3h-1.61c-.25,0-.31,0-.31.3v2.6c0,.29.06.3.31.3h1.61c.25,0,.31,0,.31-.3v-2.6Z"/>
  <path class="cls-2" d="M30.06,48.77c-.75,0-1.1-.17-1.1-1.06v-6.94h1.2v6.55c0,.29.06.3.31.3h.66v1.15h-1.07Z"/>
  <path class="cls-2" d="M32.8,48.77c-.75,0-1.1-.17-1.1-1.06v-1.32c0-.89.35-1.06,1.1-1.06h2.33v-.61c0-.29-.06-.3-.31-.3h-3.01v-1.15h3.42c.75,0,1.1.17,1.1,1.06v3.38c0,.89-.35,1.06-1.1,1.06h-2.43ZM35.13,46.48h-1.92c-.25,0-.31.01-.31.3v.54c0,.29.06.3.31.3h1.61c.25,0,.31,0,.31-.3v-.84Z"/>
  <path class="cls-2" d="M37.42,48.77v-4.44c0-.89.35-1.06,1.1-1.06h2.25v1.15h-1.84c-.25,0-.31.01-.31.3v4.05h-1.2Z"/>
  <path class="cls-2" d="M45.18,48.77l-1.55-2.77h-.85v2.77h-1.2v-7.22h3.78c.75,0,1.1.17,1.1,1.06v2.33c0,.89-.35,1.06-1.1,1.06h-.48l1.55,2.77h-1.25ZM45.26,43c0-.29-.06-.3-.31-.3h-2.17v2.15h2.17c.28,0,.31,0,.31-.29v-1.56Z"/>
  <path class="cls-2" d="M48.59,48.77c-.75,0-1.1-.17-1.1-1.06v-3.38c0-.89.35-1.06,1.1-1.06h2.43c.75,0,1.1.17,1.1,1.06v1.25c0,.89-.35,1.06-1.1,1.06h-2.33v.68c0,.29.06.3.31.3h2.9v1.15h-3.31ZM50.92,44.72c0-.29-.06-.3-.31-.3h-1.61c-.25,0-.31,0-.31.3v.77h1.92c.25,0,.31,0,.31-.3v-.47Z"/>
  <path class="cls-2" d="M53.34,50.77v-1.15h2.86c.25,0,.31,0,.31-.3v-.55h-2.33c-.75,0-1.1-.17-1.1-1.06v-3.38c0-.89.35-1.06,1.1-1.06h2.43c.75,0,1.1.17,1.1,1.06v5.38c0,.89-.35,1.06-1.1,1.06h-3.27ZM56.51,44.72c0-.29-.06-.3-.31-.3h-1.61c-.25,0-.31,0-.31.3v2.6c0,.29.06.3.31.3h1.92v-2.9Z"/>
  <path class="cls-2" d="M59.26,48.77v-4.35h-.89v-1.15h2.09v5.5h-1.2ZM59.26,41.55h1.2v1.15h-1.2v-1.15Z"/>
  <path class="cls-2" d="M65,48.77v-4.05c0-.29-.06-.3-.31-.3h-1.61c-.25,0-.31.01-.31.3v4.05h-1.2v-4.44c0-.89.35-1.06,1.1-1.06h2.43c.75,0,1.1.17,1.1,1.06v4.44h-1.2Z"/>
  <path class="cls-2" d="M68.3,48.77c-.75,0-1.1-.17-1.1-1.06v-1.32c0-.89.35-1.06,1.1-1.06h2.33v-.61c0-.29-.06-.3-.31-.3h-3.01v-1.15h3.42c.75,0,1.1.17,1.1,1.06v3.38c0,.89-.35,1.06-1.1,1.06h-2.43ZM70.63,46.48h-1.92c-.25,0-.31.01-.31.3v.54c0,.29.06.3.31.3h1.61c.25,0,.31,0,.31-.3v-.84Z"/>
  <polygon class="cls-1" points="6.22 35.64 38.62 9.95 35.25 5.7 24.32 14.38 25.99 .6 20.49 0 18.82 13.77 10.25 2.97 5.89 6.42 14.46 17.23 .67 15.72 0 21.22 13.79 22.72 2.86 31.4 6.22 35.64"/>
  <polygon class="cls-2" points="10.27 44.86 5.92 39.38 43.41 9.59 81.93 39.26 77.66 44.81 43.48 18.48 10.27 44.86"/>
</svg>