<?xml version="1.0" encoding="UTF-8"?>
<svg id="Ebene_1" data-name="Ebene 1" xmlns="http://www.w3.org/2000/svg" viewBox="0 0 564.65 326.17">
  <defs>
    <style>
      .cls-1 {
        fill: #fff;
      }
    </style>
  </defs>
  <path class="cls-1" d="m293.36,124.81c-.69.19-1.37.5-2.07.53-4.2.18-8.41.24-12.6.48-1.06.06-1.2-.33-1.14-1.12.14-1.73,1.14-2.96,2.53-3.82.86-.53,1.88-.83,2.85-1.16,1.41-.47,1.71-1.42.58-2.37-.56-.48-1.28-.85-1.98-1.06-4.72-1.4-9.38-1.06-13.99.59-1.09.39-1.42,1.08-1.42,2.2.02,12.49.01,24.98,0,37.46,0,.9.55,1.38.99,2.06,1.02,1.56,2.06,1.89,3.83,1.47.84-.2,1.91.51,2.85.87.14.05.19.47.19.71,0,.06-.34.17-.53.18-1.29.12-2.61.11-3.87.38-.56.12-1.03.77-1.48,1.25-.23.24-.24.72-.48.9-1.77,1.24-1.51,3.07-1.5,4.85.06,8.9.1,17.8.15,26.7,0,.41.03.83.05,1.24q.1,2.47,2.63,2.47c2.62,0,5.25.02,7.87-.01.76,0,1.73.34,2.07-.83.02-.06.55-.08.59,0,.51,1.07,1.48.84,2.35.85,6.69.01,13.39,0,20.08.01,1.71,0,1.75,0,1.93,1.69.09.84.4,1.28,1.26,1.27.55,0,1.1.02,1.66.02,10.63,0,21.26.01,31.88.02.35,0,.69.01,1.04,0,1.58-.08,1.77-.23,1.77-1.85,0-2.55-.08-5.1-.12-7.66,0-.55.06-1.1.09-1.65,1.04.42.77,1.36.78,2.14.04,2.69.01,5.38.01,8.08.35-2.41.34-4.83.35-7.24,0-3.5.02-3.51,3.62-3.41,1.89.05,1.97.04,2.21,1.89.14,1.04.6,1.44,1.59,1.46,1.25.03.87-.93,1.05-1.6.15-.55.37-1.44.72-1.52.91-.22,1.95-.26,2.83,0,.42.13.76,1.07.84,1.69.13,1.06.66,1.42,1.63,1.43,1.26.01.84-.97,1.03-1.63.16-.55.4-1.42.74-1.5.91-.2,1.93-.18,2.83.05.32.08.52,1.01.59,1.58.12,1.13.97.98,1.68,1.08.91.13.97-.44,1.03-1.14.04-.51.18-1.39.43-1.45.91-.22,1.91-.31,2.82-.14.38.07.81.88.88,1.39.15,1.11.82,1.32,1.73,1.33.95,0,.9-.71.9-1.31,0-1.15.56-1.6,1.67-1.56,3.03.1,6.06.19,9.09.26.84.02,1.28.47,1.42,1.22.11.61.13,1.23.15,1.85.06,2.28.08,4.55.17,6.83.02.49.37,1.4.43,1.38.9-.17.49-.95.57-1.49.07-.47.02-.96.02-1.45,0-2-.04-4,.02-6,.04-1.45.44-1.86,1.86-1.9,1.79-.05,3.59-.05,5.38,0,1.65.05,2.49,1.11,2.36,2.7-.12,1.44-.27,2.87-.27,4.31-.04,9.8-.05,19.59-.07,29.39,0,1.79,0,3.59-.01,5.38-.01,1.64-.42,1.98-1.96,1.76-.88-.12-1.77-.25-2.66-.25-2.62.02-5.24.14-7.86.16-19.67.15-39.33.3-59,.43-12.15.08-24.29.12-36.44.18-.35,0-.72-.08-1.03.03-.4.14-.74.43-1.1.66.34.25.65.63,1.02.71.6.12,1.24.05,1.86.04,13.94-.08,27.88-.2,41.82-.24,20.22-.06,40.44-.06,60.67-.08,1.31,0,2.62.01,3.93-.04,1.83-.07,2.2-.46,2.21-2.22.03-13.87.06-27.74.08-41.6,0-2.36-.71-3.11-3.06-3.15-2-.04-4,.02-6-.03-2.26-.05-2.68-.88-1.63-2.97.14-.29.15-.87-.04-1.04-.24-.23-.76-.28-1.12-.2-.16.03-.3.57-.3.87.02.82.14,1.64.19,2.45.06.88-.43,1.24-1.27,1.24-.41,0-.83.02-1.24,0-2.68-.11-5.36-.25-8.03-.35-1.62-.06-1.77-.12-1.81-1.78-.05-2.21-.03-4.42-.02-6.62q0-2.83,2.88-3.09c1.93-.17,2.12,0,2.14,1.99.03,2.35.02,4.69.03,7.04,0,.86.24,1.48,1.28,1.49,1.04.01,1.53-.44,1.53-1.48,0-1.66,0-3.31.02-4.97.02-2.89.27-3.14,3.25-3.14,2.69,0,5.38.01,8.08.02,2.76.01,5.52-.02,8.28.06,1.9.05,2.96,1.45,2.17,3.01-.54,1.07-.57,2.1-.56,3.18.07,23.04.15,46.09.22,69.13.01,3.59,0,7.18,0,10.76,0,.41-.07.85.02,1.24.14.61.44,1.73.6,1.72,1-.08.64-.99.71-1.61.06-.55.01-1.1.02-1.65.06-16.42.13-32.84.18-49.26.04-11.45.05-22.9.06-34.36,0-3.25-.43-3.67-3.71-3.68-5.45-.02-10.9-.03-16.36-.04-2.99,0-3.02-.01-3.06-2.97-.12-8.48-.22-16.97-.31-25.45-.06-5.8-.09-11.59-.13-17.39,0-1.17.02-2.35-.01-3.52-.02-.95.39-1.38,1.35-1.39.6,0,1.35.17,1.69-.58-.15-.17-.19-.25-.24-.26-.27-.06-.54-.14-.8-.13-1.61.07-2.13-.08-2.02-1.98.05-.92-.29-1.42-1.31-1.39-.94.03-1.3.44-1.4,1.38-.2,1.96-.25,1.96-2.22,1.97-2.64.02-2.67.02-2.93-2.53-.09-.93-.48-1.17-1.35-1.03-1.01.16-1.37.7-1.39,1.69-.01.65-.15,1.75-.47,1.85-.94.28-2.04.32-3,.11-.34-.08-.51-1.12-.69-1.75-.09-.32-.03-.69-.06-1.03-.08-.83-.57-.99-1.31-.86-.95.17-1.1.83-1.2,1.65-.09.7-.27,1.79-.7,1.96-.83.32-1.91.29-2.81.09-.98-.22-.62-1.23-.7-1.94-.07-.59.11-1.43-.8-1.37-.61.04-1.3.38-1.75.8-.26.25-.05.95-.2,1.39-.16.46-.47,1.17-.78,1.21-1,.13-2.1.19-3.03-.13-.35-.12-.33-1.33-.48-2.05-.03-.13-.01-.28-.02-.41-.04-.74-.49-.9-1.13-.83-1.05.12-1.64.61-1.54,1.75.11,1.27-.36,2-1.76,1.86-.13-.01-.31-.02-.4.05-.15.1-.35.28-.34.42,0,.15.21.36.37.41.25.08.55.1.82.07,1.1-.12,1.43.39,1.43,1.43,0,1.93.16,3.86.16,5.79.06,17.25.11,34.5.11,51.75,0,1.21.84,2.89-.57,3.56-1.08.52-2.57.19-3.88.22-.81.02-1.19-.48-1.03-1.18.12-.53.54-.99.83-1.49.21-.37.65-.82.55-1.08-.13-.35-.67-.76-1.04-.75-.7,0-1.42.25-2.08.5-.06.02.04.93.3,1.25.85,1.07.96,2.07.12,3.19-.1.13.08.48.13.72-.49.36-1.08.57-1.4-.06-.15-.3.03-.95.29-1.24.68-.75.8-1.32,0-2.1-.33-.32-.33-1.02-.38-1.56-.08-.78.19-1.34,1.12-1.38.41-.02.81-.14,1.22-.21,1.89-.3,2.33.04,2.72,1.86.19.87-.12,1.27-.88,1.56-.23.09-.48.56-.43.78.06.23.45.46.74.54.39.1.82.06,1.24.05,1.6-.05,1.81-.23,1.85-1.79.04-1.52-.01-3.03-.03-4.55-.09-8.55-.2-17.1-.26-25.65-.06-9.03-.08-18.07-.12-27.1,0-.21-.02-.42,0-.62.12-1.21-.35-1.83-1.63-1.74-.84.06-1.26-.31-1.25-1.21.01-.91.43-1.25,1.29-1.13,1.52.21,1.66-.52,1.6-1.91-.03-.52.28-1.49.54-1.52,1.06-.15,2.19-.16,3.21.1.3.08.35,1.23.45,1.9.2,1.28.51,1.53,1.73,1.44.78-.06,1.11-.44,1.09-1.19-.01-.48-.14-1,0-1.44.12-.38.5-.84.85-.93.65-.17,1.37-.1,2.05-.13.77-.03,1.13.38,1.22,1.1.05.41.09.82.13,1.23.09.79.6,1,1.31.98.78-.02,1.11-.44,1.13-1.17,0-.07,0-.14,0-.21.17-.7.15-1.82.55-2,.82-.37,1.87-.32,2.82-.26.31.02.69.58.83.97.15.43.1.95.08,1.44-.03,1.03.55,1.28,1.45,1.26.88-.01,1.21-.43,1.24-1.28.03-.73-.07-1.78.35-2.09.57-.43,1.56-.3,2.37-.38.97-.1,1.38.43,1.44,1.33.02.28.02.55.06.83.16,1.34,2.17,2.19,3.24,1.32.26-.21.35-.72.39-1.1.18-1.89.16-1.89,2.07-2.05.14-.01.27-.04.41-.05,1.39-.09,1.54.02,1.73,1.36.27,1.81.27,1.83,1.98,2.05.73.1,1.43.22,1.41,1.15-.02.92-.71,1.02-1.45,1.12-1.88.25-1.93.27-1.91,2.12.1,10.34.25,20.68.36,31.02.04,3.93.03,7.86.05,11.79,0,.48,0,.97,0,1.45.04,2.26.11,2.35,2.33,2.36,5.31.02,10.62,0,15.93.03.82,0,1.66.04,2.46.19,1.78.33,2.5,1.08,2.8,2.83.09.54.08,1.1.08,1.65,0,6.41,0,12.83-.01,19.24,0,.41.02.83.03,1.24.03.85.48,1.23,1.32,1.22,1.03-.02,2.07-.04,3.1.01,1.21.06,1.6-.62,1.59-1.65-.01-1.24-.13-2.48-.13-3.72,0-2.16.25-2.43,2.44-2.77,3.46-.54,3.63-.39,3.66,3.14,0,1.1-.02,2.21.04,3.31.07,1.53.19,1.64,1.69,1.69,1.65.06,3.31.08,4.96.12-.25.86-.95.89-1.66.9-1.1,0-2.21.04-3.31,0-1.1-.04-1.67.36-1.66,1.54.04,3.73.05,7.45.03,11.18,0,1.13.43,1.63,1.6,1.59,1.21-.04,2.42.04,3.63.07,0,.17,0,.34,0,.51-1.2.03-2.4.08-3.6.1-.81.01-1.55.04-1.57,1.14-.02.86.17,1.36,1.19,1.54,1.34.23,1.44.66.54,1.79-1.08,1.34-2.21,2.65-3.38,3.92-.97,1.05-1.27,1.01-2.34-.08-1.06-1.09-2.09-2.2-3.15-3.29-1.23-1.26-1.26-1.43.37-2.31.94-.51.82-1.26.63-1.93-.1-.35-.77-.68-1.22-.75-.81-.12-1.65-.05-2.48-.04-2.24.02-2.31.07-2.32,2.34-.02,6.42,0,12.83-.03,19.25-.05,8.69-.14,17.38-.2,26.08-.01,2.1.04,2.14,2.03,2.15,4.9.01,9.8.01,14.7,0,2.04,0,2.09-.03,2.06-2.1-.07-4.76-.19-9.52-.28-14.27-.18-10.07-.36-20.14-.53-30.21-.01-.86.04-1.72.06-2.58.19-.02.39-.04.58-.06.1.62.26,1.23.28,1.85.14,5.52.29,11.03.37,16.55.09,6.35.1,12.69.18,19.04.04,3.31.15,6.62.25,9.93.05,1.73.16,1.83,1.96,1.85,2.76.03,5.52.02,8.28.01,2.1,0,2.22-.12,2.25-2.23.08-5.66.18-11.31.2-16.97.09-28.84.15-57.68.22-86.52.01-4.42.03-8.83.02-13.25,0-2-.15-2.13-2.11-2.15-2.9-.02-5.8,0-8.7,0-2.95,0-2.99,0-2.95,2.96.12,8.9.27,17.79.41,26.69.12,7.86.25,15.72.37,23.59.01.81.17,1.7-.76,2.2-.12-1.44-.33-2.88-.35-4.33-.09-7.45-.1-14.9-.19-22.35-.11-8.9-.26-17.8-.4-26.69-.03-1.99-.08-2.05-2.15-2.05-9.52-.03-19.05-.04-28.57-.09-2.27-.01-4.55-.16-6.82-.26-.17,0-.32-.16-.48-.62.72,0,1.44,0,2.16,0,11.04,0,22.09.01,33.13.02.41,0,.83-.02,1.24,0,.95.04,1.35-.33,1.33-1.34-.18-9.59-.32-19.17-.47-28.76-.02-1.17-.03-2.35-.04-3.52q-.02-2.68-2.6-2.69c-.62,0-1.24,0-1.86,0-37.2,0-74.4,0-111.61,0-.94,0-1.87-.05-2.81-.08-.02-.14-.04-.28-.06-.42.32-.14.64-.37.97-.4.75-.06,1.52-.03,2.28-.03,37.41,0,74.82,0,112.23,0,3.24,0,3.65.46,3.47-3.28-.02-.38.15-.76.3-1.45.89.95.56,1.86.59,2.65.08,2.03.06,2.06,2.14,2.07,3.59.02,7.18.02,10.77,0,1.67-.01,1.71-.1,1.81-1.76.02-.41-.06-.86.08-1.23.15-.4.5-.72.77-1.07.29.32.71.61.83.98.16.51.13,1.09.11,1.64-.02,1.07.52,1.48,1.54,1.45.62-.02,1.24,0,1.86,0,13.05,0,26.09,0,39.14.02.84,0,1.67.27,2.51.41-.63.98-1.61.49-2.41.49-12.91.03-25.81.02-38.72.02-.41,0-.83,0-1.24,0-2.66.01-2.67.01-2.67,2.59,0,6.9,0,13.8,0,20.7,0,3.45-.06,6.9-.06,10.35,0,2.67.02,2.69,2.61,2.71,13.73.1,27.46.23,41.2.29,13.94.06,27.88.05,41.83.1.71,0,1.42.24,2.12.36-.52,1.02-1.45.51-2.17.51-27.54-.09-55.07-.22-82.61-.33q-2.98-.01-2.99,2.92c-.11,38.16-.23,76.31-.33,114.47-.01,3.66-.28,3.47,3.5,3.43,1.93-.03,3.87-.04,5.8-.04.83,0,1.12-.35.89-1.16-.24-.83-.44-1.68-.77-2.95,1.26.79,1.27,1.72,1.49,2.49.33,1.17.99,1.66,2.24,1.64,4.21-.06,8.42,0,12.63-.03,1.63,0,1.73-.17.89-1.62-4.51-7.75-9.03-15.5-13.57-23.23-2.44-4.15-4.95-8.26-7.58-12.63,1.16.16,1.47.99,1.84,1.59,1.93,3.1,3.84,6.23,5.69,9.38,4.86,8.27,9.71,16.53,14.5,24.84.72,1.25,1.55,1.72,2.96,1.69,4.35-.09,8.7-.06,13.04-.11.52,0,1.03-.19,1.55-.3-.2-.49-.31-1.04-.6-1.47-6.76-10.25-13.53-20.5-20.33-30.72-5.96-8.96-11.96-17.9-17.93-26.85-.53-.79-.96-1.64-1.53-2.4-.21-.28-.64-.44-1.01-.53-.54-.14-1.12-.16-1.68-.23,0-.19,0-.38,0-.57.84-.06,1.67-.17,2.51-.17,17.12-.02,34.23-.02,51.35-.03,22.64-.01,45.28-.04,67.92-.05.96,0,1.93.07,2.89.1v.83c-1.03.02-2.07.06-3.1.06-38.45,0-76.9.01-115.35.03-.79,0-1.58.19-2.37.3.35.73.61,1.51,1.05,2.18,5.46,8.22,10.97,16.4,16.43,24.62,7.37,11.09,14.74,22.18,22.04,33.32.89,1.36,1.8,1.96,3.47,1.93,6.21-.1,12.42-.04,18.64-.05.6,0,1.2-.05,2.24-.1-4.6-5.98-8.98-11.69-13.6-17.69,1.26.09,1.56.84,1.96,1.36,3.41,4.34,6.79,8.71,10.17,13.07.47.6.97,1.18,1.37,1.82.72,1.17,1.67,1.71,3.09,1.57,1.21-.12,2.43-.02,3.65-.02v.56c-1.5.07-3.02.14-4.86.22,5.57,7.54,10.98,14.86,16.39,22.18-.15.13-.31.26-.46.39-.54-.63-1.12-1.23-1.61-1.89-4.72-6.3-9.46-12.57-14.1-18.92-1-1.37-2.09-1.9-3.78-1.88-6.07.09-12.15.04-18.22.04-.48,0-.97,0-1.45.01-.66.02-.89.33-.57.93.26.49.58.94.87,1.41,1.85,2.99,3.71,5.98,5.55,8.98.38.62.68,1.3,1.01,1.94-.13.1-.26.19-.39.29-.32-.44-.67-.86-.96-1.32-2.24-3.56-4.5-7.11-6.68-10.71-.69-1.14-1.51-1.6-2.85-1.55-4.48.17-8.96.23-13.45.34-1.61.04-1.69.19-.88,1.67,3.24,5.93,6.57,11.82,9.73,17.8,2.25,4.27,4.27,8.66,6.37,13.01.34.7.52,1.47.78,2.2l-.41.15c-.22-.4-.49-.78-.67-1.19-4.87-11.15-11.09-21.59-16.88-32.26-.52-.96-1.18-1.38-2.29-1.37-4.28.05-8.56,0-12.84.03-1.63.01-1.77.2-1.16,1.66.85,2.04,1.72,4.07,2.72,6.04,4.81,9.47,9.66,18.92,14.5,28.38.37.73.8,1.43,1.27,2.26-.94.22-1.13-.5-1.38-.94-1.21-2.09-2.45-4.17-3.52-6.33-4.89-9.82-9.74-19.65-14.55-29.51-.51-1.05-1.02-1.64-2.28-1.6-2.48.09-4.97,0-7.45.04-1.74.02-1.84.12-1.86,1.93-.05,6.35-.05,12.7-.09,19.04-.07,10.69-.14,21.39-.21,32.08,0,.34.01.69-.02,1.03-.2,2.22-.6,2.63-2.78,2.65-2.9.03-5.8,0-8.7,0-86.35-.02-172.71-.04-259.06-.07-1.17,0-2.35,0-3.51-.12-.38-.04-.73-.49-1.09-.75.39-.3.74-.72,1.18-.85.51-.15,1.09-.06,1.65-.06,33.48.04,66.96.07,100.44.12,55.77.08,111.55.17,167.32.25.21,0,.41,0,.62,0,2.02-.03,2.04-.03,2.04-2.12.03-14.97.05-29.95.07-44.92,0-2.14.08-4.28.05-6.42-.02-1.63-.19-1.78-1.8-1.79-2.9-.01-5.8,0-8.7.04-1.8.02-1.91.13-1.88,1.87.13,8.14.27,16.28.4,24.42.03,2,.01,4,.06,6,.02.98-.35,1.3-1.35,1.28-2.48-.07-4.97-.02-7.45,0-35.27.13-70.54.27-105.81.39-8.9.03-17.81,0-26.71.03-34.51.12-69.02.25-103.53.38-.8,0-1.59-.05-2.39-.08,0-.17,0-.34,0-.52.65-.03,1.3-.09,1.95-.09,19.67-.11,39.34-.22,59.01-.33.35,0,.69-.03,1.04,0,1.13.08,1.65-.43,1.64-1.57-.01-1.31.04-2.62.05-3.93,0-.84-.44-1.27-1.27-1.29-.41-.01-.83-.02-1.24-.01-13.94.12-27.88.24-41.82.37-5.73.05-11.46.09-17.18.19-2.22.04-2.26.2-2.34,2.43-.04,1.18.24,2.42-.29,3.54-.17,0-.33,0-.5,0-.04-1.32-.08-2.63-.12-3.95-.05-1.79-.13-1.87-1.87-1.94-1.99-.08-3.98-.14-5.97-.25-.29-.02-.57-.23-.86-.35.3-.16.6-.46.91-.47,2.75-.11,5.51-.24,8.26-.24,13.53-.04,27.06-.02,40.59-.09,14.77-.08,29.54-.23,44.31-.36,2.6-.02,3.78-1.29,3.69-3.87-.04-1.17.04-2.34-.05-3.51-.03-.37-.39-.9-.71-1-.62-.2-1.06.19-1.07.88-.02.97.03,1.93-.01,2.9-.11,2.66-1.15,3.48-3.7,3.01-.67-.12-1.36-.23-2.04-.23-9.32,0-18.64,0-27.96.04-18.36.1-36.72.24-55.08.35-1.66.01-3.31-.02-4.97-.07-.56-.02-1.12-.15-1.68-.23v-.45c.43-.09.84-.25,1.26-.27,1.65-.06,3.31-.04,4.97-.1,1.84-.07,1.95-.21,1.9-2.1-.05-1.52-.15-3.03-.16-4.55-.06-14.56-.11-29.12-.17-43.68,0-.48-.02-.97,0-1.45.04-.98-.45-1.34-1.39-1.34-3.66,0-7.32-.06-10.97-.04-1.39,0-1.54.18-1.55,1.81-.03,3.66-.02,7.31,0,10.97.03,6,.05,12.01.11,18.01.07,6.69.19,13.38.29,20.07.03,2.01.04,2,1.99,2.55.17.05.29.24.74.64-.7,0-1.07.03-1.43,0-.9-.08-1.24.37-1.27,1.21-.03.88.39,1.28,1.23,1.27.76-.01,1.51-.09,2.26-.06.21,0,.42.29.62.44-.2.12-.39.35-.59.36-3.55.2-3.56.2-3.55,3.68.03,7.11.08,14.21.11,21.32,0,.55.1,1.14-.06,1.64-.14.43-.6.76-.92,1.13-.3-.4-.69-.76-.88-1.21-.15-.36-.05-.82-.05-1.23-.16-24.01-.3-48.02-.47-72.04-.02-2.97-.16-5.93-.21-8.9-.02-1.04-.31-1.68-1.53-1.71-4.27-.08-8.55-.24-12.82-.32-1.62-.03-1.68.12-.79,1.62,1.76,2.97,3.54,5.92,5.3,8.89.27.45.49.93.73,1.39-.12.09-.25.19-.37.28-.41-.54-.86-1.06-1.22-1.63-1.76-2.88-3.56-5.75-5.22-8.69-.77-1.35-1.67-1.94-3.28-1.91-4,.1-8.01-.03-12.01-.03-1.9,0-1.95.12-1,1.83,2.76,5.02,5.55,10.02,8.28,15.05,1.01,1.86,1.86,3.79,2.79,5.69-.14.09-.27.18-.41.28-.28-.38-.62-.74-.84-1.15-3.6-6.6-7.22-13.19-10.73-19.84-.75-1.42-1.65-1.91-3.25-1.91-5.52,0-11.03-.19-16.55-.3-.48,0-.97,0-1.45,0-.96,0-1.02.49-.64,1.2.46.85.93,1.69,1.4,2.54,4.44,7.95,8.92,15.88,13.32,23.86,2.33,4.23,4.52,8.53,6.77,12.81.25.48.47.98.79,1.64-.97.02-1.11-.7-1.36-1.15-1.79-3.26-3.52-6.57-5.32-9.83-5.42-9.78-10.88-19.53-16.27-29.32-.72-1.31-1.57-1.9-3.08-1.84-2.55.1-5.11.03-7.66.02-.64,0-1.28-.1-1.92-.15-.01-.17-.03-.34-.04-.51.48-.09.96-.25,1.44-.26,2.55-.03,5.11,0,7.66-.01,1.89-.01,1.96-.12.96-1.81-3.58-6.06-7.21-12.09-10.75-18.17-1.8-3.1-3.46-6.28-5.16-9.44-.31-.58-.53-1.21-.48-2.01.24.25.54.46.71.75,5.56,9.61,11.14,19.21,16.63,28.87.9,1.58,1.92,2.22,3.76,2.18,5.31-.1,10.63.02,15.94.04.62,0,1.26.05,1.85-.08.21-.05.52-.6.46-.82-.15-.52-.49-.98-.77-1.45-4.16-7.16-8.34-14.3-12.45-21.49-1.16-2.03-2.11-4.19-3.12-6.3-.24-.49-.42-1.03-.5-1.57-.03-.24.28-.52.44-.78.17.18.44.34.48.55.53,3.07,2.23,5.62,3.72,8.24,4.24,7.43,8.59,14.8,12.9,22.19.46.78.88,1.51,2,1.52,4.69.07,9.38.21,14.06.31.19,0,.38-.09.82-.21-5.95-10.62-12.95-20.51-18.43-31.28.12-.1.24-.2.36-.29.27.3.61.57.82.91,5.81,9.71,11.63,19.41,17.38,29.15.76,1.28,1.64,1.79,3.14,1.77,4.07-.07,8.14.04,12.22.04,2.14,0,2.29-.14,2.28-2.18-.06-14.9-.13-29.81-.21-44.71-.01-1.86-.12-3.72-.19-5.58-.07-1.94-.18-2.07-2.22-2.02-4.27.1-8.55.29-12.82.36-4.97.08-9.94.04-14.91.11-4.96.08-9.93.23-14.89.35-.6.01-1.2,0-1.82-.18,1.28-.67,2.67-.73,4.03-.76,2.76-.06,5.52-.02,8.28-.06,10.07-.15,20.14-.32,30.21-.46,4.1-.06,4.16-.13,4.12-4.14-.08-9.66-.12-19.32-.19-28.98-.11-14.28-.23-28.56-.35-42.85,0-.76-.09-1.54.06-2.27.09-.42.59-.76.9-1.14.29.4.66.77.84,1.22.14.36.05.82.05,1.23.02,3.73.02,7.45.05,11.18.14,19.6.28,39.19.43,58.79.01,1.65.16,3.31.19,4.96.02,1.09.42,1.67,1.59,1.65,3.86-.05,7.73-.08,11.6-.08,1.14,0,1.4-.64,1.4-1.59-.02-2.42,0-4.83-.04-7.25-.16-10.97-.34-21.94-.51-32.9-.14-9.04-.28-18.07-.44-27.11-.04-2.41-.17-4.82-.23-7.24-.01-.65.11-1.3.17-1.95.17-.01.35-.02.52-.03.07.54.19,1.08.2,1.63.15,8,.29,16,.42,24,.15,8.69.29,17.38.44,26.07.13,7.86.27,15.73.41,23.59,0,.28,0,.55.01.83q.08,1.67,2.26,2.22c-2.19.32-2.05,1.69-2.03,3.04.06,4.9.11,9.8.15,14.7,0,.7-.07,1.4-.11,2.1-.18,0-.36.01-.55.02-.08-.7-.21-1.4-.22-2.11-.07-4.69-.12-9.38-.17-14.08,0-.55-.03-1.1-.04-1.66-.02-1.08-.5-1.64-1.66-1.61-2,.05-4,0-6,.05-1.79.05-3.58.2-5.37.3-1.58.09-1.72.18-1.75,1.88-.03,1.65.05,3.31.06,4.97.04,9.52.06,19.05.13,28.57.04,5.66.13,11.31.22,16.97.03,2.08.32,2.43,2.39,2.46,3.24.06,6.49.03,9.73.01,1.82-.01,1.87-.06,1.88-1.87.02-5.11,0-10.21,0-15.32,0-.74,0-1.48,0-2.52,1.17.8.89,1.69.9,2.43.03,4.69,0,9.38.02,14.08.01,3.57-.04,3.2,3.31,3.27,4.62.1,9.24.22,13.86.33.41,0,.83-.03,1.24,0,1.06.07,1.51-.42,1.5-1.46-.02-1.31,0-2.62,0-3.93,0-3.86,0-7.73,0-11.59,0-2.66-.01-2.67-2.6-2.68-4.76,0-9.53,0-14.29,0-.74,0-1.48-.07-2.39-.11.44-1.09,1.21-.83,1.8-.83,3.45-.03,6.9-.01,10.35-.02,1.79,0,3.59.02,5.38-.02,1.54-.04,1.7-.16,1.72-1.66.04-3.86.04-7.73,0-11.59-.01-1.62-.18-1.78-1.81-1.79-4.07-.03-8.15-.01-12.22-.01-1.08,0-2.17,0-3.25,0-.02-.18-.04-.37-.06-.55.59-.06,1.18-.16,1.77-.16,4.42-.01,8.84,0,13.25-.01,2.3,0,2.32-.02,2.33-2.3.02-3.8.02-7.59,0-11.39,0-2-.03-2.07-2.01-2.19-1.14-.07-1.63-.57-1.64-1.65,0-1.72,0-3.45,0-5.17,0-1.11.57-1.55,1.67-1.65,1.96-.18,1.99-.23,1.99-2.25,0-23.6-.01-47.2-.03-70.8,0-2.1-.06-2.14-2.27-2.14-12.29-.04-24.57-.07-36.86-.1-.76,0-1.52,0-2.27-.07-.61-.06-1.4-.16-1.26-.99.05-.32.77-.64,1.24-.74.59-.13,1.24-.05,1.86-.04,11.94.03,23.88.07,35.82.1.41,0,.83,0,1.24,0,2.49-.01,2.5-.02,2.5-2.54,0-16.77-.01-33.54-.01-50.31,0-1.79.02-3.59.06-5.38.05-2.05,1.05-3.23,3.07-3.5,1.43-.19,2.88-.32,4.33-.32,9.66-.04,19.33-.03,28.99-.05.55,0,1.11-.04,1.66,0,1.16.07,1.59-.47,1.59-1.6,0-2.62.05-5.24.11-7.87.06-2.55.14-5.1.22-7.65.05-1.62-.03-1.75-1.72-1.78-7.52-.15-15.04-.29-22.55-.42-9.59-.16-19.18-.28-28.77-.44-5.93-.1-11.86-.28-17.79-.38-2.22-.04-2.27.07-2.58,2.26-1.88,13.17-3.78,26.35-5.65,39.52-1.59,11.2-3.16,22.39-4.74,33.59-.25,1.78-.49,3.56-.84,5.31-.09.43-.6,1.08-.95,1.1-.84.05-.9-.72-.82-1.35.29-2.33.62-4.65.95-6.97,1.47-10.38,2.95-20.75,4.43-31.13,1.73-12.15,3.46-24.3,5.19-36.45.17-1.23.38-2.45.52-3.69.23-1.97.09-2.16-1.88-2.21-5.38-.15-10.76-.3-16.13-.39-8.9-.16-17.8-.29-26.7-.44-.53,0-1.05-.12-1.57-.18-.02-.14-.04-.28-.06-.42.46-.11.93-.32,1.38-.31,2.07.07,4.13.25,6.19.29,3.24.06,6.49.01,9.73.06,8.62.13,17.24.29,25.87.43.55,0,1.1.02,1.66,0,1.84-.04,1.92-.07,2.22-1.95.37-2.31.67-4.64.99-6.96.17-1.23.33-2.46.51-3.69.06-.41.12-.85.33-1.19.19-.3.74-.72.86-.65.35.21.68.61.79,1,.11.36-.07.81-.13,1.22-.47,3.48-.97,6.97-1.42,10.46-.22,1.69-.18,1.71,1.57,1.76,5.17.14,10.34.29,15.51.37,10.9.17,21.8.29,32.7.47,6.41.1,12.83.27,19.24.4.55.01,1.1.01,1.66,0,1.94-.04,2-.08,2.05-1.96.06-1.86.07-3.73.13-5.59.01-.48.01-.98.15-1.43.25-.86.74-.98,1.57-.57.59.29,1.23.67,1.84.66,3.93-.06,7.86-.2,11.79-.36,2.48-.1,4.96-.31,7.44-.38,2.74-.07,5.49.04,8.23-.08,1.49-.06,2.96-.43,4.45-.63.39-.05.79-.09,1.17-.03.67.1,1.32.31,1.99.41.69.1,1.56.12,1.49,1.01-.03.37-.82.7-1.3,1-.16.1-.4.07-.61.08-.81.04-1.05.52-.97,1.26.08.72.4,1.15,1.18,1.15,2.14,0,4.28-.02,6.42,0,.85,0,1.28-.4,1.37-1.21.04-.41.04-.83.08-1.24.14-1.45.16-1.3,1.61-1.35,3.91-.12,7.82-.39,11.73-.59.38-.02.77.14,1.16.16,1.83.1,3.68.44,5.47-.31.22-.09.55-.17.74-.08,1.78.87,3.66.36,5.48.38,2.41.02,4.82-.18,7.24-.26.84-.03,1.65.02,2.03-1.02.1-.26.7-.55.97-.47.3.09.62.56.67.91.16,1.09.21,2.19.26,3.29.04.92.45,1.39,1.41,1.37,1.86-.03,3.73-.06,5.59-.03,1.14.01,1.55-.47,1.63-1.61.12-1.86.23-1.81,2.13-1.97,4.3-.34,8.6.03,12.9-.08,4.34-.11,8.69-.05,13.04-.1,1.52-.02,3.03-.14,4.55-.22.34-.02.81.03,1-.16,1.32-1.31,2.41-.02,3.53.32.83.26.88,1.13.04,1.49-1.03.43-1.06,1.13-1.03,1.98.25,7.72.49,15.44.73,23.16.22,7.03.42,14.07.64,21.1.28,9.31.56,18.62.85,27.92.02.61.19,1.22.31,1.82.26,1.3-.16,1.84-1.46,1.78-2.96-.12-5.92-.37-8.88-.39-6.96-.04-13.93.03-20.89.06-2.27,0-4.54,0-6.84.36.94.21,1.88.41,2.82.62-1.43.56-2.78.3-4.13-.12-.61-.19-.74-.58-.67-1.27.23-2.4.44-4.8.47-7.21.09-6.62.09-13.25.12-19.87,0-2.17-.06-2.24-2.16-2.25-1.04,0-2.07,0-3.11.02-1.95.04-2.04.1-2.04,1.95,0,3.8,0,7.59.06,11.39.05,3.66.17,7.31.27,10.96.03,1.02-.07,2.01.71,2.92.61.71.1,1.31-.74,1.45-.68.12-1.37.15-2.06.15-9.18,0-18.36.02-27.54,0-2.21,0-4.41-.14-6.62-.22-2.08-.08-2.38-.36-2.39-2.46-.02-7.31,0-14.63,0-21.94,0-3.63.47-3.4-3.5-3.36-.83,0-1.66,0-2.48.04-1.56.06-1.66.15-1.68,1.67-.01,1.86,0,3.73.05,5.59.12,5.52.26,11.03.4,16.55.03,1.07-.21,2.16,1.27,2.68.72.25.47,1.3-.35,1.52-.46.12-.96.1-1.44.1-12.42,0-24.85-.02-37.27-.04-.21,0-.41,0-.62,0-1.66-.08-1.95-.31-1.94-1.96.01-2.62.11-5.24.16-7.86.1-5.24.21-10.48.27-15.73.02-1.55-.15-1.7-1.88-1.67-5.04.08-10.07.22-15.11.33-1.17.03-2.35.03-3.52.03-1.07,0-1.39.55-1.4,1.57-.08,12-.2,24-.3,35.99-.02,2.82,0,2.81,2.82,2.82,9.18.03,18.36.05,27.54.08,31.06.11,62.12.22,93.18.33,8.9.03,17.81.06,26.71.1,26.78.1,53.56.21,80.34.32.83,0,1.66,0,2.47.15.3.05.71.53.72.82,0,.27-.41.69-.72.8-.44.15-.95.1-1.43.1-30.23-.06-60.47-.1-90.7-.18-11.11-.03-22.22-.21-33.33-.24-25.54-.08-51.08-.1-76.62-.17-9.38-.03-18.77-.15-28.15-.23-.55,0-1.1,0-1.66,0-.75,0-1.15.37-1.17,1.13-.01.48-.02.97-.02,1.45-.06,23.19-.11,46.37-.16,69.56,0,.28,0,.55,0,.83.05,2.02.11,2.08,2.11,2.12.28,0,.55,0,.83,0,1.65.07,2.07.51,1.99,2.15-.08,1.58-.14,3.17-.3,4.74-.15,1.42-.39,1.57-1.85,1.65-2.71.15-2.78.15-2.86,2.9-.11,3.79-.12,7.59-.11,11.38,0,1.41.17,1.57,1.55,1.58,5.45.03,10.91,0,16.36.03.91,0,1.38-.17,1.36-1.25-.13-7.59-.21-15.18-.28-22.77-.05-5.17-.06-10.35-.09-15.53-.05-7.52-.07-15.04-.15-22.56-.11-11.04-.25-22.08-.38-33.11,0-.74,0-1.49,0-2.45,1.08.5.87,1.25.89,1.84.07,3.93.12,7.87.15,11.8.15,18.49.28,36.98.45,55.47.08,8.76.26,17.52.37,26.28.04,2.97,0,2.98-2.95,2.98-4.97,0-9.94,0-14.91,0-2.36,0-2.39.04-2.4,2.46-.02,3.59-.04,7.18-.02,10.77,0,1.69.1,1.8,1.75,1.8,10.63.01,21.26,0,31.89-.02,1.66,0,1.74-.1,1.77-1.78.07-3.73.13-7.45.14-11.18,0-1.89-.15-2.01-1.98-2.05-.8-.02-1.61,0-2.42-.21.86-.76,1.87-.45,2.81-.5.84-.04,1.6-.15,1.56-1.18-.04-.95.52-2.09-.81-2.7-1.47-.68-1.65-1.32-.61-2.57,1.23-1.49,2.59-2.87,3.89-4.3.56-.62,1.17-.72,1.78-.1,1.83,1.87,3.68,3.73,5.46,5.65.59.63.36,1.05-.54,1.24-.2.04-.41.06-.62.04-1.24-.11-1.57.63-1.52,1.66.03.61.01,1.28.25,1.81.31.67,4.99.69,5.28.02.26-.6.27-1.34.27-2.02.01-5.73,0-11.46,0-17.18-.03-22.22-.06-44.44-.13-66.66,0-2.51.67-2.41,2.98-2.33.29.01.75.44.82.75.34,1.44,1.07.96,2,.61,2.25-.86,4.5-1.74,6.83-2.33,2.54-.65,5.14-.83,7.78-.25,3.67.8,5.12,2.15,5.8,5.93.16.89.69,1.05,1.38,1.26,1.88.55,3.62,1.4,4.9,2.93.43.52.71,1.16,1.06,1.75-.23.08-.46.17-.69.25-1.41-2.78-3.86-4.05-6.79-4.41-2.49-.3-5.01-.15-6.93,1.8-.51.52-.66,1.4-.97,2.11.63.15,1.26.4,1.9.44,1.3.07,2.61.01,3.92.02,2.95.01,5.9.03,8.86.05Zm-20.3,104.34c2.83,2,3.55,2.28,5.28,1.96-.87-.49-1.61-.97-2.4-1.35-.91-.44-1.8-1.05-2.9-.59-.54-.91-.25-1.45.74-1.11,1.48.51,2.9,1.24,4.31,1.93,1.08.52,2.06,1.33,3.72,1.09-3.78-2.81-7.59-4.14-12.36-3.19,1.41.49,2.5.87,3.6,1.25Zm-71.64-48.87c.12.4.19.82.37,1.18.35.72-.51,1.82.55,2.21.74.27,1.62.17,2.44.21.55.02,1.1.02,1.65-.02.77-.05,1.36-.28,1.19-1.26-.06-.33-.07-.7.02-1.02.27-.99-.23-1.22-1.07-1.22-1.72,0-3.44-.04-5.17-.06.33-.28.66-.8,1-.81,3.68-.09,7.37-.13,11.06-.11.35,0,.96.43,1.01.73.48,2.99-.98,5.12-4.16,4.74-2.76-.33-5.49-.05-8.22-.31-.4-.04-.95-.08-1.2.14-1.7,1.45-3.56.02-5.32.34-.19.04-.7-.54-.72-.85-.07-1.23-.06-2.47.03-3.7.03-.46.26-1.02.94-.42.06.06.56-.37.85-.58-.27-.12-.54-.29-.82-.34-.33-.06-.69-.03-1.03-.01-1.4.07-1.51.16-1.55,1.57-.04,1.24.02,2.48-.02,3.72-.03,1.04.41,1.51,1.46,1.51,6.68,0,13.37,0,20.05.04,1.03,0,1.53-.39,1.58-1.42.06-1.31.21-2.61.28-3.91.09-1.6-.1-1.85-1.67-1.83-4.41.05-8.82.15-13.22.27-.32,0-.64.29-.96.45.22.25.45.51.67.76Zm104.88,63.81c0-.13-.02-.27-.02-.4.26-.06.51-.15.77-.16,3.44-.12,6.89-.29,10.34-.33,6.62-.08,13.25-.08,19.87-.11.48,0,.97-.02,1.45.01.97.06,1.54.54,1.55,1.56,0,.48.02.97.02,1.45.09,6.97.18,13.93.27,20.9,0,.34.02.69.04,1.03.05.74.44,1.13,1.19,1.13.48,0,.97.02,1.45.01,6.28-.1,12.55-.26,18.83-.29,11.73-.07,23.46-.06,35.19-.1,2.11,0,2.23-.12,2.23-2.24,0-15.18,0-30.35-.04-45.53,0-.83.29-2.04-1.11-2-1.38.04-1.03,1.25-1.04,2.07-.03,4.62-.02,9.24,0,13.86,0,1.26-.26,2.41-1.46,2.96-.72.33-1.6.4-2.41.4-35.33.11-70.66.19-105.99.28-.48,0-.97,0-1.45.04-1.55.13-1.75.29-1.76,1.92-.03,4.69-.03,9.38,0,14.07.01,1.59.2,1.76,1.84,1.77,5.8.04,11.59.05,17.39.04,1.66,0,1.78-.14,1.79-1.77.02-2.69-.03-5.38-.04-8.07,0-.64.05-1.27.08-1.91l.59-.02c.09.76.25,1.51.26,2.27.05,2.62.04,5.24.06,7.86,0,.79.08,1.49,1.1,1.7.45.09.83.52,1.24.8-.47.18-.93.42-1.42.53-.39.09-.82.03-1.24.03-6.35-.02-12.7-.04-19.05-.05-.55,0-1.1,0-1.65.05-.7.06-.9.53-.9,1.15,0,.93.6,1.15,1.37,1.15,2,0,4,0,6-.04,5.1-.11,10.2-.24,15.3-.36.48-.01.98-.04,1.44.07.28.06.51.37.77.56-.22.22-.41.51-.67.65-.22.12-.54.1-.81.08-1.12-.06-1.41.56-1.39,1.55.03,2.21-.02,4.42.03,6.62.01.51.19,1.1.49,1.49.66.86.23,1.08-.56,1.16-.48.05-.96.03-1.45.04-6.21.11-12.41.21-18.62.32-.28,0-.55.01-.83.03-.66.03-1.13.36-.94,1.02.1.34.58.66.96.81.36.14.82.04,1.23.03,3.51-.13,7.03-.26,10.54-.42,1.86-.08,3.72-.22,5.57-.29,1.58-.06,3.16-.06,4.74-.04.21,0,.54.24.6.44.06.18-.11.61-.27.66-1.35.4-1.24,1.47-1.24,2.51.01,2.97.01,5.93.04,8.9.01,1.66.11,3.31.08,4.97-.01,1.17.52,1.63,1.63,1.56.41-.02.83,0,1.24,0,8.97-.02,17.94-.03,26.91-.05,3.43,0,3.43-.02,3.19-3.46-.11-1.49-.19-1.61-1.75-1.63-2.76-.04-5.52.01-8.28-.02-1.12-.01-1.77.25-1.89,1.57-.11,1.17-.75,1.38-1.7.61-1.55-1.26-3.04-2.6-4.51-3.96-1.16-1.07-1.13-1.35.07-2.47,1.36-1.27,2.72-2.55,4.09-3.8.97-.89,1.48-.84,1.96.41.33.86.77,1.18,1.65,1.18,2.9-.02,5.8-.01,8.69.03,1.1.01,1.66-.36,1.64-1.55-.05-2.62.01-5.24-.03-7.86-.02-1.41-.17-1.51-1.56-1.58-1.1-.06-2.21-.08-3.31-.12,0-.19,0-.38.01-.57,1.01,0,2.02.02,3.03,0,1.77-.04,1.85-.09,1.82-1.92-.05-3.45-.18-6.89-.23-10.34-.05-3.59,0-7.17-.04-10.76-.02-2.35-.05-2.4-2.49-2.35-2.89.06-5.79.27-8.68.3-6.62.07-13.25.08-19.87.1-.67,0-1.34-.07-2.01-.11Zm29.85-158.65c-.19-.02-.39-.05-.58-.07-.1-1.23-.27-2.45-.3-3.68-.29-12-.59-24-.84-35.99-.22-10.48-.39-20.97-.58-31.45,0-.48,0-.97-.08-1.44-.22-1.29-1.25-1.04-2.12-1.05-.95-.01-1.35.43-1.25,1.43.08.81-.04,1.64-.06,2.46-.12,7.93-.26,15.86-.36,23.8-.17,12.69-.32,25.39-.47,38.08-.03,2.48-.07,4.97-.06,7.45,0,1.87.03,1.85,1.8,1.72,2.41-.17,4.82-.45,7.23-.43,8.14.04,16.28.19,24.42.3,1.85.03,1.98-.13,1.9-1.99-.22-5.51-.44-11.03-.6-16.54-.22-7.17-.35-14.34-.57-21.52-.34-10.82-.75-21.64-1.08-32.47-.11-3.48-.02-2.8-3.17-2.7-.93.03-1.38.5-1.4,1.42,0,.62-.03,1.24-.03,1.86.05,8.56.1,17.11.14,25.67.03,4.9.03,9.8.08,14.7.09,9.59.2,19.18.28,28.77,0,.48-.17.97-.26,1.45-.17,0-.34-.01-.51-.02-.06-.7-.17-1.41-.18-2.11-.1-12.56-.21-25.11-.28-37.67-.07-10.56-.1-21.12-.15-31.67,0-.41-.02-.83-.03-1.24-.02-.78-.47-1.13-1.19-1.13-1.79.01-3.59.05-5.38.1-.65.02-1.02.36-1.04,1.03-.01.48-.02.97-.02,1.45.08,7.8.18,15.59.25,23.39.04,4.76.01,9.52.03,14.28.04,10.63.08,21.25.11,31.88,0,.69-.09,1.37-.14,2.06-.19,0-.37-.01-.56-.02-.06-.85-.16-1.7-.17-2.55-.15-22.98-.28-45.95-.42-68.93-.02-2.57-.03-2.57-2.49-2.59-.62,0-1.24,0-1.86,0-2.29.02-2.34.08-2.33,2.31,0,.34.01.69.02,1.03.12,5.86.24,11.72.36,17.58.17,8.28.36,16.55.51,24.83.16,8.55.31,17.11.45,25.66.01.7-.06,1.41-.09,2.11-.19,0-.38.02-.57.02-.07-.7-.2-1.4-.21-2.1-.08-4.48-.1-8.97-.19-13.45-.2-9.38-.44-18.76-.64-28.13-.17-7.93-.31-15.86-.46-23.79-.03-1.59-.09-3.17-.11-4.76,0-.85-.38-1.28-1.25-1.27-1.04.01-2.07-.02-3.11,0-1.78.04-1.85.08-1.81,1.9.12,5.93.27,11.86.41,17.79.14,5.93.29,11.86.41,17.79.15,7.1.28,14.21.43,21.31.1,4.48.25,8.96.35,13.44.01.56-.12,1.13-.18,1.69Zm-6.93,132.82c20.21,0,40.42,0,60.63,0,.55,0,1.1.02,1.66,0,1.48-.06,1.62-.17,1.65-1.71.04-1.86.01-3.72.02-5.59,0-1.86.07-3.72.02-5.58-.03-1.46-.24-1.62-1.71-1.7-.48-.03-.97,0-1.45,0-12.14,0-24.28-.02-36.42-.03-16.83,0-33.66,0-50.49-.02-11.8-.01-23.59-.04-35.39-.06-2.56,0-2.59.02-2.59,2.49,0,3.17.03,6.34.05,9.52q.02,2.69,2.76,2.7c20.42,0,40.84,0,61.25,0Zm-120.76,74.09v-.33c10,0,20,0,30,0,2.03,0,2.11-.09,2.12-2.1.04-5.1.06-10.21.05-15.31,0-1.84-.12-1.93-1.8-2.01-.28-.01-.55,0-.83,0-12.21.03-24.42.06-36.63.09-.9,0-1.8.06-2.69-.03-1.92-.2-2.65-1.08-2.66-2.98,0-8.83,0-17.65-.02-26.48,0-4.04.24-3.53-3.56-3.6-4.34-.08-8.71.17-13.03-.16-3.63-.27-3.3-.13-3.28,3.22.11,15.65.24,31.3.36,46.95q.02,2.72,2.77,2.73c9.72,0,19.45,0,29.17,0Zm73.54-64.67q2.05.91,2.03,3.04c0,.28.02.55.04.83.18,2.92.18,2.94,3.1,2.92,17.32-.11,34.64-.23,51.97-.34,6.49-.04,12.98-.03,19.46-.05,10.77-.03,21.54-.06,32.3-.09,2.16,0,2.17-.02,2.18-2.19.02-3.31.02-6.62.05-9.94.02-2.92.03-2.93-2.93-2.92-24.16.06-48.31.13-72.47.19-16.36.04-32.72.08-49.08.11-.69,0-1.38.03-2.07.02-.96,0-1.36.49-1.36,1.41,0,1.59.02,3.17-.01,4.76-.03,1.19.57,1.55,1.67,1.51,1.72-.05,3.45.02,5.18-.02,3.03-.08,6.06-.22,9.1-.31.54-.02,1.09.07,1.63.16.02,0,.06.54-.06.68-.15.16-.48.15-.73.22Zm-37.41-142.58c-.24,0-.47,0-.71.01-.06-.92-.17-1.84-.17-2.76,0-19.53,0-39.05-.01-58.58,0-3.81.35-3.59-3.57-3.62-2.05-.02-2.09.02-2.15,2.06-.14,4.69-.28,9.38-.39,14.06-.17,7.72-.3,15.44-.45,23.16-.16,8-.35,16-.49,24-.04,2.33.03,2.36,2.25,2.35,6.07,0,12.15-.01,18.22-.02.35,0,.69-.03,1.03,0,1.04.11,1.35-.43,1.26-1.36-.03-.27,0-.55,0-.83-.06-22.84-.12-45.67-.18-68.51,0-.62-.03-1.24-.02-1.86.01-1.05-.53-1.5-1.54-1.47-1.38.04-2.76.05-4.14.11-1.82.08-1.91.11-1.89,1.89.04,3.72.19,7.45.24,11.17.15,10.14.3,20.28.41,30.42.09,8.97.13,17.94.18,26.91,0,.51-.09,1.02-.14,1.52-.17.01-.33.02-.5.04-.09-.9-.24-1.79-.25-2.69-.15-9.86-.29-19.73-.41-29.59-.15-12.21-.29-24.42-.42-36.63-.03-3.02-.01-3.03-3.1-2.99q-3.06.03-3.06,3.07c0,22.49,0,44.98,0,67.48v2.64Zm11.23,178.75c.03.17.05.35.08.52.32.09.63.21.95.25,1.16.16,2.35.18,3.47.48,1.59.42,2.71,1.97,2.75,3.51.04,1.45-.98,2.71-2.67,3.28-.46.15-.93.32-1.4.34-2.2.09-4.39.14-6.59.17-.97.02-1.93-.07-2.9-.04-1.43.04-1.6.16-1.59,1.53.04,4.07.17,8.14.24,12.2.02.97.49,1.5,1.39,1.8,3.44,1.15,7.01,1.38,10.59,1.56.85.04,1.29-.35,1.29-1.22,0-.55-.12-1.15.05-1.64.19-.53.59-1.26,1.02-1.35.98-.21,2.11-.32,3.03-.02,1.01.32.4,1.44.48,2.21.01.14,0,.28,0,.41.02.86.39,1.32,1.3,1.09,2.33-.59,4.71-1.05,6.98-1.84,2.48-.86,2.54-1.17,2.23-3.86-.05-.41-.1-.82-.1-1.24-.14-9.03-.31-18.06-.38-27.1-.03-3.86.11-7.72.26-11.58.04-1.14-.34-1.79-1.37-2.23-2.75-1.19-5.63-1.82-8.61-2.04-.73-.06-1.04.21-1.04.9,0,1.17-.07,2.35.05,3.52.19,1.89.24,1.89-1.63,1.91-.48,0-.97,0-1.45-.04-.84-.05-1.21-.48-1.2-1.34,0-1.24-.03-2.48-.11-3.72-.08-1.32-.38-1.57-1.67-1.4-3.55.47-7.1.97-10.41,2.48-.29.13-.66.08-1,.12.55-.68,1.18-1.12,1.88-1.3,2.59-.68,5.21-1.25,7.81-1.93,1.08-.28,2.65.54,3.17-.76.4-.99-.02-2.3-.04-3.46-.02-1.02-.47-1.5-1.52-1.49-5.38.04-10.77.06-16.15.07-.98,0-1.34.48-1.33,1.41.02,1.24-.02,2.48,0,3.73.04,1.57.12,1.59,1.65,1.72.81.07,1.75-.31,2.78.83-1.2.05-1.99.07-2.78.12-1.54.08-1.62.13-1.64,1.7-.03,3.31-.02,6.62-.02,9.94,0,3.19.08,3.26,3.23,2.99,1.78-.16,1.99-.36,1.99-2.14,0-2.83-.03-5.66-.04-8.49,0-.64.05-1.28.08-1.92.19-.01.38-.02.57-.03.08.63.22,1.25.23,1.88.04,2.55.03,5.11.05,7.66.02,2.77.28,3.05,3.03,3.2.48.03.97-.07,1.45-.03,1.92.15,3.87.13,5.73.55,1.2.27,2.47.99,3.34,1.87,2.03,2.03,1.18,4.55-1.62,5.28-1.3.34-2.61.67-3.91,1Zm112.15,5.92s0,.07,0,.11c-8.42,0-16.84,0-25.26,0-2.04,0-2.14.1-2.16,2.07-.02,2.35,0,4.69.04,7.04.04,1.72.18,1.84,1.95,1.89,3.52.11,7.03.23,10.55.27,3.8.05,3.8.01,4.15,3.86.2,2.25-.03,2.55-2.3,2.56-3.66.02-7.32-.02-10.97-.05-3.55-.03-3.67.11-3.28,3.65.1.88.48,1.22,1.31,1.2.48-.01.97,0,1.45,0,18.42,0,36.84,0,55.26-.03.3,0,.72-.33.85-.62.17-.35.12-.81.11-1.22-.01-6.35-.02-12.7-.06-19.04-.01-1.84-.17-2.02-2.04-1.99-2.83.04-5.65.26-8.48.27-7.04.04-14.08.01-21.12.01Zm-55.86-185.18c-.24,0-.48,0-.72,0-.06-.92-.17-1.84-.17-2.76-.06-22.56-.11-45.11-.15-67.67,0-.41-.03-.83,0-1.24.06-1.04-.39-1.52-1.46-1.49-1.59.05-3.17.05-4.76.03-1-.01-1.56.36-1.59,1.43-.06,2.55-.27,5.1-.2,7.64.1,3.93.48,7.84.58,11.77.2,7.93.36,15.86.43,23.79.07,8.42.01,16.83.02,25.25,0,.69-.04,1.39.08,2.06.26,1.57.74,1.98,2.32,1.99,3.45.02,6.9.03,10.35,0,1.62-.02,1.72-.15,1.78-1.81.02-.48,0-.97,0-1.45-.15-9.52-.34-19.03-.46-28.55-.17-13.38-.29-26.76-.44-40.13-.02-2.01-.12-2.08-2.11-2.14q-3.64-.1-3.64,3.59c.05,22.14.11,44.29.16,66.43,0,1.09,0,2.17,0,3.26Zm69.27,217.8v-.09c12.84,0,25.68,0,38.51,0,.55,0,1.11-.03,1.66,0,1.09.06,1.49-.51,1.45-1.51-.01-.34,0-.69,0-1.03-.17-9.45-.34-18.9-.53-28.35-.04-1.89-.08-1.94-2.03-1.94-4.56-.02-9.11,0-13.67,0-3.31,0-3.11-.27-3.11,3.16,0,6.9-.01,13.8-.04,20.7-.01,2.33-.61,2.95-2.89,3.09-1.45.09-2.9.14-4.34.14-17.39.01-34.79,0-52.18.01-.69,0-1.38.02-2.07.02-1.04,0-1.43.52-1.47,1.55-.03.92-.17,1.88-.46,2.75-.36,1.06-.29,1.37.81,1.48.61.06,1.24.03,1.86.03,12.84,0,25.68,0,38.51,0Zm-109.26-253.78s.02,0,.03,0c-.28-11.65-.57-23.3-.83-34.96-.05-2.24-.05-2.27-2.38-2.21-2.02.05-2.09.12-2.14,2.12-.02.69-.01,1.38,0,2.07.14,14.21.29,28.42.42,42.63.07,7.86.11,15.73.15,23.59,0,.78-.16,1.56-.24,2.34-1.11-.53-.61-1.54-.62-2.33-.17-13.38-.31-26.76-.43-40.15-.08-8.9-.09-17.8-.17-26.7-.03-3.9.78-3.58-3.93-3.51-.07,0-.14,0-.21.01-1.09.06-1.63.63-1.61,1.73,0,.41-.01.83,0,1.24.02,15.87.03,31.74.06,47.61.01,7.18.06,14.35.11,21.53.01,2.03.06,2.07,2.11,2.08,2.62.02,5.25,0,7.87,0,2.68,0,2.72,0,2.66-2.77-.26-11.44-.56-22.89-.84-34.33Zm-71.59,24.19c-.07,0-.15,0-.22,0,0,7.73,0,15.45,0,23.18,0,1.17-.04,2.35,0,3.52.05,1.42.17,1.56,1.54,1.6,1.38.05,2.76.03,4.14,0,1.89-.03,1.98-.1,1.98-2.01-.01-12.7-.05-25.39-.07-38.09,0-1.03-.05-2.07.05-3.1.21-2.13,1.35-3.23,3.48-3.37,1.51-.1,3.02-.14,4.54-.16,5.52-.05,11.04-.07,16.56-.1.55,0,1.15.09,1.64-.1.42-.17.99-.66,1.01-1.03.12-2.89.12-5.79.14-8.69,0-.75-.43-1.12-1.18-1.12-.55,0-1.1-.01-1.66,0-9.38.11-18.77.23-28.15.35-3.78.05-3.79.05-3.79,3.86,0,8.42,0,16.84,0,25.25Zm50.64,223.16s0,.03,0,.04c-2.62,0-5.24-.03-7.87.01-1.53.02-1.81.37-1.76,1.86.05,1.34.27,1.6,1.8,1.61,3.93,0,7.87-.02,11.8-.08,1.65-.02,3.29-.23,4.94-.23,2.73,0,5.46.16,8.2.19,3.76.04,7.5-.63,11.27-.29.82.07,1.66.04,2.48-.02,1.14-.08,1.66-.75,1.27-1.79-.34-.88-1.56-1.65-.05-2.54-.21-.3-.48-.58-.62-.92-.13-.29-.25-.87-.13-.94,1.03-.65.86-1.65.85-2.6-.03-6.28-.09-12.55-.1-18.83-.02-9.79,0-19.59-.03-29.38,0-.96.08-2-.25-2.87-.6-1.59-.14-3.14-.06-4.66.11-2.04.08-2.31-1.98-2.32-4,0-8,0-12.01.03-3.72.02-3.77.09-3.68,3.84.03,1.43-.21,1.98,1.88,2.21,3.01.33,5.98.98,8.73,2.37,1.01.51,1.49,1.07,1.39,2.39-.26,3.64-.35,7.3-.34,10.95.01,5.79.14,11.58.26,17.37.09,4.48.22,8.96.37,13.43.04,1.09-.34,1.81-1.33,2.33-2.6,1.39-5.41,2.02-8.27,2.53-1.8.32-1.82.29-1.94,2.13-.13,2.08-1.17,3.38-3.14,4.16-1.35.54-2.56.06-3.84.03-2.62-.05-5.24-.01-7.87-.01Zm-20.41-56.52c2.55,0,5.1,0,7.66,0,2.23,0,2.28-.03,2.31-2.34.04-2.14.01-4.28.02-6.41.02-3.13.13-3.23,3.26-3.31,4.82-.11,9.64-.23,14.46-.34,2.04-.05,2.14-.13,2.19-2.08.03-1.24.03-2.48,0-3.72-.05-1.77-.19-1.9-1.88-1.96-.83-.03-1.66-.02-2.48,0-1.73.05-1.98.13-2.01,1.87-.05,3.09-.56,3.16-3.7,3.18-.34,0-.69.02-1.03-.01-1.21-.1-1.72-.58-1.86-1.78-.05-.48,0-.96-.02-1.45-.06-1.67-.12-1.79-1.76-1.79-10.62-.02-21.25-.01-31.87,0-1.65,0-1.76.13-1.77,1.78-.03,5.38-.03,10.76-.01,16.14,0,1.66.13,1.78,1.75,1.82,5.58.15,11.16.27,16.74.41Zm-30.47-98.91h-.03c0,11.45,0,22.9,0,34.34,0,.55-.02,1.1,0,1.65.07,1.43.16,1.55,1.54,1.59,1.1.04,2.21,0,3.31,0q2.95-.02,2.96-2.95c0-.07,0-.14,0-.21-.03-22.97-.06-45.93-.09-68.9,0-.55-.03-1.1-.01-1.65.04-1.08-.51-1.46-1.53-1.44-1.52.03-3.04-.02-4.55.02-1.41.04-1.52.17-1.6,1.55-.03.55,0,1.1,0,1.65,0,11.45,0,22.9,0,34.34Zm20.21,128.34v-.09c1.52,0,3.03,0,4.55,0,4.55-.01,9.1,0,13.66-.05,1.8-.02,1.9-.13,1.92-1.87.03-1.79.02-3.59,0-5.38-.02-1.92-.07-2-1.98-1.98-7.72.05-15.45.14-23.17.2-1.37,0-2.76,0-4.12-.16-2.27-.27-3.25-1.48-3.23-3.72.05-4.41.1-8.82.15-13.23,0-.48-.02-.97-.01-1.45,0-.92-.45-1.43-1.37-1.45-1.86-.03-3.72-.02-5.59-.02-.77,0-1.1.46-1.12,1.19-.01.48-.03.96-.03,1.45-.02,7.79-.04,15.58-.06,23.37,0,.62.03,1.24.06,1.86.05.81.45,1.28,1.29,1.29.62.01,1.24.03,1.86.04,5.72,0,11.45,0,17.17,0Zm215.97-140.33s.05,0,.07,0c0-5.44.01-10.89,0-16.33,0-1.67-.11-1.79-1.75-1.8-3.72-.03-7.45-.03-11.17,0-1.65.01-1.78.13-1.75,1.79.04,2.89.21,5.78.24,8.67.08,7.1.12,14.2.18,21.29,0,.89.07,1.79.17,2.68.2,1.76.27,1.85,2.02,1.86,3.17.03,6.34.02,9.51.01,2.32,0,2.46-.12,2.47-2.46.02-5.24,0-10.48,0-15.71Zm-146.35-79.9c.1,0,.2,0,.3,0,0,7.38-.01,14.76,0,22.14.01,4.07.08,8.14.13,12.21,0,.34.02.69,0,1.03-.04.94.38,1.42,1.34,1.4.9-.01,1.79,0,2.69-.02,2.41-.06,2.53-.14,2.52-2.63-.02-3.86-.12-7.72-.14-11.59-.04-6.28,0-12.56-.1-18.84-.11-5.93-.36-11.85-.57-17.78-.19-5.3-.39-10.61-.6-15.91-.07-1.72-.17-3.44-.27-5.16-.08-1.49-.22-1.63-1.72-1.68-.83-.03-1.66-.02-2.48.03-1.37.09-1.53.26-1.58,1.6-.01.34.02.69.03,1.03.15,11.38.3,22.76.45,34.14Zm7.87,14.82c0,6.61.01,13.64-.02,20.67,0,.85.15,1.31,1.1,1.27.89-.04,1.79-.03,2.69,0,.93.02,1.44-.35,1.41-1.33-.01-.41.01-.83,0-1.24-.08-13.51-.16-27.02-.26-40.53-.03-3.79-.12-7.58-.25-11.37-.16-4.82-.4-9.64-.54-14.46-.04-1.23.15-2.47.23-3.71.05-.86-.33-1.29-1.23-1.22-1.17.09-2.34.16-3.51.22-.83.04-1.26.45-1.25,1.3.02,1.45-.02,2.9.05,4.34.24,5.16.59,10.31.75,15.48.32,10.05.55,20.11.83,30.59Zm-14.03-14.82h-.12c0,11.03-.01,22.06,0,33.08,0,4.03-.5,3.75,3.82,3.72,1.83-.01,1.95-.17,1.99-2.06.02-.96,0-1.93-.01-2.89-.13-7.3-.29-14.61-.38-21.91-.17-12.68-.29-25.36-.44-38.04-.03-2.21-.08-4.41-.13-6.62-.05-2.01-.06-2.02-2.15-2.04q-2.58-.03-2.59,2.64c0,11.37,0,22.74,0,34.12Zm-19.44,93.95c-.2.01-.41.02-.61.04-.11-.73-.29-1.45-.32-2.18-.09-2.34-.16-4.69-.18-7.03-.05-5.58-.06-11.16-.1-16.74,0-.27.05-.61-.09-.8-.21-.31-.55-.71-.84-.72-.26,0-.69.44-.76.75-.13.59-.08,1.23-.07,1.85.08,10.35.2,20.69.24,31.04.08,20.83.11,41.67.17,62.5.01,4.55,0,9.1.05,13.66,0,.75-.34,1.94.85,1.98,1.46.04.94-1.29.94-2.05-.04-13.93-.15-27.87-.2-41.8-.05-12.28-.06-24.56-.09-36.84,0-.34-.07-.72.05-1.03.15-.39.47-.72.71-1.07.19.33.45.64.54,1,.1.39.04.82.04,1.24.09,17.73.18,35.46.27,53.18,0,.21,0,.41,0,.62.03,2.29.08,2.35,2.3,2.36,10.97.03,21.94.05,32.92.08.55,0,1.17.11,1.63-.11.39-.18.76-.75.8-1.18.03-.29-.47-.83-.82-.93-.58-.17-1.23-.08-1.85-.08-10.42,0-20.84,0-31.26,0-.69,0-1.38,0-2.07-.04-.81-.03-1.28-.43-1.27-1.29,0-.41-.01-.83-.02-1.24-.09-26.14-.19-52.29-.28-78.43,0-2.29.09-2.48,2.3-3.27,4.05-1.44,8.2-1.7,12.43-.94,2.43.44,4.67,1.17,5.56,3.92.61-1.72.01-2.99-1.22-4.03-1.31-1.11-2.9-1.56-4.58-1.69-4.44-.36-8.61.57-12.66,2.38-1.85.83-2.72,1.87-2.65,4.04.23,6.75.24,13.51.31,20.27,0,.86-.13,1.72-.19,2.58Zm98.8,60.07c0,.09,0,.19,0,.28,6,0,12,.01,18,0,1.8,0,1.92-.11,1.93-1.86,0-2.55-.06-5.1-.14-7.65-.04-1.21-.89-1.8-1.9-1.25-.41.22-.7.97-.74,1.5-.08,1.04-.4,1.55-1.52,1.33-.47-.09-.96-.08-1.44-.06-.92.03-1.39-.33-1.43-1.32-.02-.5-.2-1.35-.48-1.43-.76-.21-1.64-.23-2.42-.05-.29.07-.57.86-.59,1.34-.04,1.09-.57,1.47-1.58,1.38-.21-.02-.41,0-.62,0q-1.78-.03-2.2-1.86c-.2-.88-1.14-1.37-1.83-.84-.32.25-.53.81-.55,1.23-.04,1.34-.8,1.53-1.93,1.5-2.1-.05-2.23-.03-2.54-1.56-.18-.88-.45-1.4-1.44-1.33-1,.07-.94.77-1.03,1.47-.08.58-.26,1.57-.51,1.61-1.06.16-2.21.18-3.24-.07-.32-.08-.52-1.16-.56-1.79-.06-1.04-.61-1.24-1.49-1.24-1.07,0-1.17.65-1.24,1.49-.15,1.81-.18,1.8-1.94,1.81-.21,0-.41,0-.62,0-1.54-.08-1.71-.13-1.74-1.64-.03-1.91-.85-1.67-2.35-1.65-1.56.02-1.71.18-1.74,1.86-.04,2.21-.03,4.41,0,6.62.03,2.05.15,2.19,2.29,2.19,5.86.02,11.72,0,17.58,0Zm-68.39,89.85v-.05c3.03,0,6.07-.02,9.1,0,1.08,0,1.68-.31,1.66-1.53-.09-4.61-.07-9.23-.21-13.85-.07-2.28-.2-2.33-2.4-2.25-5.71.22-11.42.49-17.13.76-1.48.07-1.59.17-1.6,1.75-.02,4.41-.01,8.82.01,13.23.01,1.78.12,1.89,1.88,1.9,2.9.03,5.79,0,8.69,0Zm-85.63-172.46h.1c0,18.42,0,36.85,0,55.27,0,.62-.06,1.26.07,1.86.07.32.54.85.69.8.37-.12.89-.45.95-.78.15-.8.09-1.65.09-2.47.03-24.15.04-48.3.11-72.45.03-9.59.23-19.18.33-28.77.04-3.93-.02-7.85,0-11.78,0-1.48.59-2.12,2.05-2.31.48-.06.96-.06,1.45-.06,3.8-.03,7.59-.03,11.39-.11,2.41-.05,4.82-.17,7.23-.31,1.26-.08,1.49-.4,1.48-1.71,0-1.28-.23-1.52-1.58-1.63-.27-.02-.55-.02-.83-.01-6.76.12-13.52.23-20.28.36-2.15.04-2.37.28-2.39,2.32,0,1.66.62,3.42-.76,4.87-.11.11-.03.4-.03.61-.02,1.59-.06,3.17-.06,4.76,0,17.18,0,34.36,0,51.55Zm18.99,151.3s0-.04,0-.06c9.39,0,18.77.02,28.16-.02,1.22,0,2.47-.26,3.66-.57.91-.23,1.73-.94,1.57-1.92-.13-.79-.67-1.66-1.29-2.17-.52-.42-1.41-.41-2.15-.53-.88-.15-1.78-.2-2.65-.38-.86-.17-1.61-.59-1.57-1.62.04-.91.75-1.25,1.53-1.45,1.27-.32,2.55-.6,3.81-.94,1.85-.5,2.34-2.1.95-3.41-.67-.63-1.61-1.02-2.49-1.35-2.69-.99-5.56-.63-8.33-.78-3.78-.21-7.59,0-11.38.05-8,.12-16.01.24-24.01.38-2.71.05-3.25-.46-3.25-3.22,0-3.73.02-7.45-.02-11.18,0-.67.41-1.88-.57-1.88-.92,0-.59,1.22-.59,1.91-.04,4.42-.02,8.83-.05,13.25-.02,2.39.49,2.99,2.84,2.98,12.55-.08,25.1-.19,37.65-.26,1.93-.01,3.86.11,5.78.18.74.03,1.41.23,1.54,1.08.13.89-.53,1.2-1.22,1.4-.86.24-1.75.38-2.59.68-1.62.57-2.21,1.52-1.96,2.95.2,1.18.96,1.65,2.61,1.83,1.16.12,2.33.3,3.44.63.41.12.93.73.94,1.13,0,.42-.45,1.11-.85,1.24-.96.32-2.01.52-3.02.53-2.75.03-5.5-.12-8.25-.09-14.56.13-29.12.31-43.68.45-3.68.03-4.03-.35-4.03-4.01-.01-8,0-16.01,0-24.01,0-.48.07-.98-.03-1.44-.07-.34-.38-.63-.58-.95-.26.33-.55.64-.76,1-.09.15-.03.41-.03.61,0,9.38-.02,18.77-.01,28.15,0,1.39.29,1.66,1.7,1.78.48.04.97.03,1.45.03,9.25,0,18.5,0,27.75,0Zm-29.43-160.75c.1,0,.21,0,.31,0,0-8.41,0-16.83,0-25.24.01-13.31.02-26.62.05-39.94,0-2.77.4-3.09,3.1-3.11,10.35-.1,20.69-.22,31.04-.37.67,0,1.81.34,1.79-.78-.02-1.12-1.15-.72-1.82-.73-4.21-.04-8.42-.03-12.63-.02-6.62.02-13.25.05-19.87.09-.61,0-1.23.11-1.83.25-1.09.26-1.58,1.01-1.59,2.12-.02,2.54-.09,5.08-.09,7.62,0,18.07.02,36.13.02,54.2,0,23.73,0,47.46,0,71.18,0,.28-.07.58.02.82.17.46.37,1.19.67,1.25.78.15.74-.6.77-1.14.03-.55.02-1.1.02-1.65,0-21.52,0-43.04,0-64.56Zm83.25-74.82s.03,0,.05,0c0-3.31,0-6.62,0-9.94,0-1.93.08-3.86.05-5.79-.02-1.86-.18-2.01-2.02-2.04-1.45-.02-2.9,0-4.35.02-2.3.03-2.34.05-2.3,2.31.12,6.07.26,12.14.4,18.2.1,4.21.19,8.41.31,12.62.07,2.32.13,2.37,2.54,2.38,1.04,0,2.07,0,3.11-.03,2.17-.05,2.2-.06,2.2-2.22.02-5.17,0-10.35,0-15.52Zm37.78-.44c.12,0,.25,0,.37,0,0,3.16,0,6.33,0,9.49,0,2.2.06,4.41.04,6.61,0,1.11.39,1.67,1.57,1.61,1.17-.05,2.34,0,3.51-.01,2.25-.03,2.32-.06,2.37-2.33.13-5.78.22-11.56.3-17.34.06-4.54.08-9.09.11-13.63.01-1.98-.08-2.07-2.11-2.09-1.31-.02-2.62,0-3.93,0-2.16.02-2.21.06-2.22,2.2-.01,5.16,0,10.33,0,15.49Zm-93.63,219.89s0-.09,0-.13c4.2,0,8.41,0,12.61,0,.97,0,1.79-.07,1.78-1.38-.02-4,0-7.99.03-11.99,0-.98-.48-1.33-1.39-1.37-1.44-.07-2.88-.26-4.32-.28-4.55-.06-9.09-.07-13.64-.08-2.48-.01-4.96,0-7.44-.01-.94,0-1.62.19-1.62,1.34,0,4.13-.07,8.27-.05,12.4,0,1.26.4,1.51,1.68,1.51,4.13,0,8.25,0,12.38,0Zm116.57,40.01v.04c18.22,0,36.44,0,54.66,0,.76,0,1.52.02,2.28-.02,2.27-.11,2.55-.44,2.55-2.77-.01-6.9,0-13.8-.06-20.7,0-.73.46-2.04-.64-2.02-.99.02-.61,1.34-.61,2.1-.03,5.93-.02,11.87-.02,17.8,0,.76.01,1.52-.08,2.27-.22,1.75-.8,2.13-2.48,1.88-1.15-.17-2.32-.34-3.47-.34-6.55.03-13.11.12-19.66.17-9.8.06-19.6.12-29.4.14-19.81.04-39.61.06-59.42.11-.68,0-1.9-.38-1.92.57-.03,1.22,1.26.73,1.97.73,7.52.04,15.04.03,22.55.03,11.25,0,22.5,0,33.75,0Zm-48.02-24.31s0-.06,0-.08c2.89,0,5.78.02,8.67,0,1.74-.02,1.87-.14,1.9-1.9.03-1.86.01-3.72-.03-5.57-.05-2.12-.13-2.22-2.25-2.18-5.16.09-10.31.23-15.47.35-.48.01-.96,0-1.44.03-1.87.08-1.92.12-1.94,2.07-.02,1.72-.02,3.44,0,5.16.03,2,.15,2.12,2.1,2.13,2.82.01,5.64,0,8.46,0Zm104.62-79.25c0-3.1.01-6.2,0-9.3,0-1.51-.03-1.58-1.45-1.59-5.44-.03-10.89-.01-16.33-.04-.86,0-1.26.25-1.24,1.17.05,2,0,4,.04,5.99.03,1.2.37,1.45,1.47,1.44,1.04-.01,1.27-.61,1.22-1.49-.03-.48-.03-.96-.03-1.45.02-1.54.6-1.95,2.06-1.47,1.21.4,1.54.85,1.07,2.4-.33,1.1.12,1.17.92,1.2,2.06.08,4.13.2,6.19.26,2.96.09,4.06,1.2,4.05,4.22,0,2.48-.06,4.96-.09,7.44,0,.48.01.96.04,1.44.04.65.39,1.11,1.05.95.37-.09.8-.5.92-.86.17-.5.1-1.09.1-1.64,0-2.89,0-5.79,0-8.68Zm-199.21,37.54h-.04c0,2.68-.03,5.36.01,8.04.02,1.54.16,1.64,1.66,1.68,1.44.04,2.89.03,4.33.03,2.02,0,2.09-.04,2.09-2.07,0-4.81-.01-9.63-.03-14.44,0-.62-.07-1.23-.11-1.85-.06-.92-.55-1.34-1.48-1.32-1.58.02-3.16-.03-4.75,0-1.53.04-1.66.14-1.68,1.67-.04,2.75-.01,5.5-.01,8.25Zm51.1,62.76h0c1.52-.01,3.03-.02,4.55-.01,1.31,0,2.62-.01,3.93.02.83.02,1.42-.33,1.32-1.16-.03-.27-.78-.51-1.23-.64-.38-.11-.82-.02-1.23-.03-3.32-.08-6.57-.55-9.73-1.62-1.11-.38-1.67-1-1.67-2.25-.02-3.44-.18-6.89-.23-10.33-.05-3.86.35-3.69-3.79-3.38-1.45.11-1.65.29-1.66,1.79-.04,5.31-.04,10.61,0,15.92,0,1.51.2,1.66,1.7,1.68,2.69.03,5.38,0,8.06,0Zm75.01-3.77c0-2.18,1.29-2,2.49-1.99,8.2.02,16.39.03,24.59.05.55,0,1.1.01,1.65-.04.25-.03.57-.14.7-.33.76-1.11-.43-3.55-1.76-3.59-1.65-.06-3.31-.05-4.96-.05-6.82-.01-13.64-.02-20.46-.05-.59,0-1.54,0-1.7-.32-.65-1.31-1.15-.7-1.79-.08-.64.62-1.33,1.2-2.02,1.77-.62.51-.63,1-.05,1.54.96.89,1.9,1.79,3.3,3.1Zm-31.21,8.36c-2.42,0-4.83,0-7.25,0-3.96,0-3.53-.16-3.52,3.63,0,2.13.43,2.52,2.56,2.53,5.04.01,10.08.06,15.11-.02,3.87-.06,3.81.87,3.77-4-.02-1.91-.23-2.1-2.19-2.13-2.83-.03-5.66,0-8.49-.01Zm28.13,0h0c-1.65,0-3.31,0-4.96,0-3.17,0-6.34-.03-9.51.03-.64.01-1.73.21-1.82.54-.25.96-.25,2.05-.03,3.02.07.29,1.17.49,1.79.48,5.64-.07,11.28-.16,16.92-.3,4.13-.1,8.25-.27,12.38-.43,1.46-.06,1.74-.37,1.71-1.69-.03-1.31-.35-1.62-2.03-1.63-4.82-.03-9.64,0-14.47,0Zm-115.17-101.96h0c0-2.07.03-4.13-.01-6.2-.03-1.53-.21-1.7-1.64-1.75-1.58-.04-3.17,0-4.75-.02-.93-.01-1.41.35-1.4,1.33.01,4.41.01,8.81,0,13.22,0,.97.45,1.35,1.39,1.33,1.58-.03,3.17.03,4.75-.01,1.46-.04,1.64-.19,1.67-1.71.05-2.06.01-4.13.01-6.2Zm47.51,2.42c-1.46-1.42-2.55-2.47-3.63-3.53-.47-.47-.92-.59-1.41-.04-.83.93-1.68,1.83-2.44,2.81-.16.21-.15.87.01.98,1.58,1.05,1.24,2.63,1.22,4.12-.1,6.55-.21,13.1-.28,19.65-.02,1.75.32,1.95,2.11,1.92,1.12-.02,1.65-.48,1.67-1.59.01-.69.13-1.37.15-2.06.16-6.55.34-13.09.44-19.64.02-1.3.18-2.33,2.15-2.6Zm-55.34,13.49h-.01c0,2.13.01,4.27,0,6.4,0,.95.41,1.39,1.36,1.37,1.65-.02,3.31-.03,4.96,0,1.04.02,1.54-.44,1.54-1.47,0-4.06-.01-8.12-.02-12.18,0-.92-.45-1.4-1.4-1.39-1.65,0-3.31.02-4.96,0-1.05-.02-1.49.45-1.47,1.49.03,1.93,0,3.85,0,5.78Zm214.7-1.21h-.21c0-.34,0-.69,0-1.03-.04-3.59-.07-7.17-.14-10.76-.01-.51-.09-1.22-.41-1.49-.82-.67-3.08.45-3.12,1.51-.05,1.52-.04,3.04-.02,4.55.06,6.48.13,12.96.18,19.44,0,.36-.11.93-.35,1.05-.92.46-.63.89-.11,1.4.39.39.78.79,1.15,1.19q1.37,1.48,2.78-.02c.14-.15.29-.3.42-.45.64-.71,1.54-1.36.12-2.25-.27-.17-.27-.88-.28-1.35-.02-3.93-.01-7.86-.01-11.79Zm-154.29,1.77h.01c0-1.38,0-2.75,0-4.13,0-3.91-.06-3.38-3.55-3.43-2.26-.03-2.5.21-2.56,2.43-.07,2.61-.08,5.23-.1,7.84-.03,5.17-.89,4.39,4.62,4.48,1.18.02,1.59-.53,1.58-1.62-.02-1.86,0-3.72,0-5.57Zm149.35.53c-.08-1.63-.17-2.8-.19-3.97-.05-3.98.35-3.68-3.91-3.68-1.84,0-1.99.16-2.02,2.02-.03,2.68-.04,5.37,0,8.05.05,4.89-.64,4.18,4.54,4.22,1.42,0,1.55-.14,1.58-1.53.04-1.86,0-3.72,0-5.11Zm-212.62,1.2c0,7.72,0,15.44,0,23.17,0,.48-.02.97,0,1.45.04.58-.16,1.41.76,1.36.23-.01.53-.8.62-1.27.11-.53.03-1.1.03-1.65,0-12.27,0-24.54,0-36.82,0-3.03.08-6.07-.03-9.1-.04-1.06.68-2.35-.62-3.19-1.48.81-.46,2.21-.77,3.29-.02.06,0,.14,0,.21,0,7.52,0,15.03,0,22.55Zm13.44.24h.15c0-7.86,0-15.71,0-23.57,0-.55.08-1.13-.06-1.65-.1-.39-.47-.72-.73-1.07-.26.33-.64.63-.75,1.01-.13.44-.05.96-.04,1.44.07,15.78.14,31.56.22,47.35,0,.48-.03.98.07,1.44.06.29.34.52.53.78.19-.24.5-.46.55-.72.09-.54.05-1.1.05-1.65,0-7.79,0-15.58,0-23.37Zm182.37-15.23s-.03,0-.04,0c.07-1.03.08-2.06.21-3.07.14-1.08-.31-1.55-1.35-1.55-1.65,0-3.29,0-4.94,0-.84,0-1.27.4-1.27,1.25.01,2.4.03,4.8.03,7.2,0,.98.55,1.29,1.46,1.28,1.44-.03,2.88-.05,4.32,0,1.18.04,1.59-.53,1.57-1.62-.02-1.17,0-2.33,0-3.5Zm-146.2,66.11c0-.27,0-.55,0-.82-.04-3.94.49-3.65-3.87-3.66-1.19,0-1.55.59-1.54,1.65.02,1.51-.02,3.02-.01,4.53,0,2.91.04,2.94,3.03,2.87,2.24-.05,2.35-.15,2.39-2.31.01-.75,0-1.51,0-2.26Zm9.71,4.5c0-.18-.02-.36-.02-.54-1.21-.17-2.42-.33-3.63-.5-1.54-.23-2.58-1.24-2.91-2.79-.3-1.43.1-2.47,1.51-3.31.87-.52,1.89-.79,2.85-1.17.37-.15.74-.3,1.12-.44-2.16-.23-4.23-.22-6.29-.23-.9,0-1.45.29-1.44,1.3.02,2.14.02,4.28,0,6.41,0,.86.4,1.24,1.25,1.28,1.51.08,3.02.26,4.53.28,1.01.01,2.02-.19,3.02-.29Zm-13.02-252.43c0-4-.24-4.22-3.93-3.86-.99.1-1.51.48-1.54,1.5-.04,1.1-.16,2.19-.2,3.28-.07,2.06-.04,1.99,2.1,2.33,4.37.69,3.5-.22,3.58-3.25Zm132.38,168.71s.05,0,.07,0c-.11-1.51-.17-3.02-.35-4.52-.14-1.19-1.14-.95-1.94-.98-.82-.03-1.32.28-1.31,1.18.01,2.54.04,5.09.02,7.63,0,1.2.74,1.28,1.64,1.28,1.48,0,1.78-.15,1.85-1.28.07-1.1.02-2.2.02-3.3Zm23.36,26.64c0-1.65,0-3.3,0-4.95,0-.48-.02-.96-.07-1.44-.07-.64-.44-1.09-1.08-.93-.36.09-.69.54-.89.9-.15.27-.07.67-.08,1.01-.02,3.37-.05,6.73-.06,10.1,0,.48-.07,1.02.12,1.42.17.34.66.66,1.04.7.27.03.74-.35.86-.66.17-.42.13-.94.14-1.42.01-1.58,0-3.16,0-4.74Zm-147.8,17.7c1.02.61,2.03,1.21,3.05,1.82-.09.17-.18.34-.27.52-.95-.45-1.95-.83-2.86-1.36-2.68-1.55-5.6-1.74-8.58-1.59-.41.02-1.09.35-1.13.61-.07.44.16,1.08.49,1.4.48.46,1.16.72,1.75,1.06-.1-.52-.42-.68-.62-.94-.26-.34-.42-.75-.63-1.12.44-.1.88-.25,1.33-.3.39-.04.89.22,1.17.05,1.11-.66,2.08-.15,2.89.42,2.45,1.72,5.14,2.19,8.04,1.95.89-.07,1.79-.01,2.69-.06.42-.02.83-.15,1.39-.26-2.41-2.01-4.41-2.93-6.12-2.7,1.6.87,2.98,1.63,4.37,2.38-.07.15-.14.3-.21.45-2.38-.43-4.26-2.36-6.76-2.34Zm19.85,73.16c-2.5-.55-4.55-2.43-7.55-1.99.93.74,1.65,1.32,2.37,1.89-.06.12-.11.24-.17.37-2.33-.72-4.28-3-7.29-2.02,1.8,1.57,3.51,2.46,5.76,2.3,2.26-.16,4.54-.05,6.81-.05.71,0,1.42,0,2.13,0-1.1-1.15-2.08-2.24-4.05-2.32.86.79,1.42,1.3,1.98,1.82Zm6.75-244.1v-.03c.82,0,1.64-.02,2.46,0,1.09.03,1.4-.57,1.39-1.56-.01-.93-.17-1.63-1.32-1.6-1.71.04-3.42.05-5.13.04-.99,0-1.31.54-1.3,1.43,0,.87.06,1.7,1.24,1.71.89,0,1.78,0,2.67,0Zm45.91-.85v-.03c.68,0,1.37-.02,2.05,0,1.01.03,1.51-.38,1.49-1.45-.02-1.08-.6-1.45-1.56-1.43-1.5.02-3,.08-4.51.1-.97.01-1.3.52-1.29,1.43,0,.94.41,1.39,1.35,1.37.82-.01,1.64,0,2.46,0Zm-60.28,180.75s.06,0,.08,0c-.1-1.98-.18-3.97-.33-5.95-.03-.42-.33-.83-.57-1.21-.03-.05-.41.13-.63.2.76,1.27-.38,2.41-.23,3.7.25,2.18.17,4.39.24,6.59.01.48-.03.99.12,1.43.14.38.53.68.81,1.01.17-.34.47-.68.49-1.03.05-1.58.02-3.16.02-4.74Zm13.8-221.38s0-.02,0-.03c1.1,0,2.2.06,3.29-.03.37-.03.7-.44,1.05-.68-.34-.26-.67-.72-1.02-.73-2.13-.05-4.26-.04-6.38.04-.32.01-.63.51-.94.79.3.21.6.59.92.61,1.02.08,2.06.03,3.09.03Zm46.69-2s0,.08,0,.12c-1.17,0-2.34-.05-3.51.03-.28.02-.54.47-.8.72.28.23.56.67.85.67,2.13.05,4.27.06,6.4-.03.3-.01.59-.57.88-.88-.31-.21-.61-.58-.93-.61-.96-.08-1.93-.03-2.89-.03Zm-49.95,216.66c-2.15-1.65-4.66-2.41-7.15-3.2,2.37,1.12,4.34,3.11,7.15,3.2Zm-8.29-67c1.56-1.58,1.79-3.4.91-4.63-.13-.18-.42-.26-.66-.31-.04-.01-.24.31-.24.48-.02,1.49-.01,2.97-.01,4.46Zm10.96,138.11c-1.33-1.1-2.59-2.32-4.5-2.09,1.41.9,2.34,2.78,4.5,2.09Zm3.68.32c-1.39-1.59-2.5-2.82-4.47-2.42,1.22.94,2.19,2.31,4.47,2.42Zm98.7-109.2c.05-1.3-.48-1.56-1.29-1.55-.75.01-1.13.35-1.14,1.11-.01.91.53,1.26,1.31,1.1.47-.1.88-.51,1.12-.67Zm-131.21,107.03c1.92,1.53,2.21,1.65,4.75,1.91-1.37-.99-2.71-2.05-4.75-1.91Zm12.04,2.11c-1.64-1.19-3.06-1.96-4.78-2.03,1.27,1.1,2.55,2.16,4.78,2.03Zm17.67-74.95c1.61.91,2.89,1.65,4.19,2.35.13.07.43.03.53-.08.09-.1.08-.47,0-.52-1.36-.74-2.53-2-4.71-1.76Zm-79.56-47c-.47.82-.95,1.29-.93,1.74.02.33.67.87,1.07.9.68.05,1.19-.51,1.05-1.21-.09-.41-.59-.73-1.19-1.42Zm14,1.36c-.78-.58-1.19-1.11-1.65-1.15-.3-.03-.9.63-.93,1.01-.03.36.51,1.07.81,1.08.46,0,.93-.46,1.77-.94Zm36.72,120.45c-1.24-.81-2.36-1.82-3.91-1.87,1.16.94,2.31,1.91,3.91,1.87Zm7.44.21c-1.5-1.2-2.68-2.09-4.3-2.16,1.17.93,2.25,2.02,4.3,2.16Zm9.85-73.9c1.27,1.13,2.52,2.32,4.39,2.3-1.46-.77-2.93-1.54-4.39-2.3Zm13.65,71.17c-.09.15-.17.29-.26.44.82.72,1.64,1.45,2.48,2.14.11.09.38,0,.57-.02-.02-.18.03-.45-.07-.52-.89-.7-1.81-1.36-2.72-2.04Zm44.37,2.52c.06-.25.12-.5.18-.75l-3.03-.57c-.04.16-.08.32-.12.48.99.28,1.97.56,2.96.84Zm-127.4-121.89c.87-.08,2-.18,2.94-.27-1.4-1.07-1.76-1.03-2.94.27Zm49.8,49.24q1.2,1.5,2.6,1.35c-.98-.51-1.79-.93-2.6-1.35Zm-.75,72.59c-.62-.41-1.05-.73-1.53-.97-.19-.1-.48,0-.73.02.12.26.17.62.37.76.5.35,1.07.69,1.88.19Zm85.34-.03c.05-.18.09-.36.14-.54-.77-.23-1.54-.45-2.31-.68-.05.17-.11.35-.16.52l2.34.7Zm-13.2-1.13c-.07.16-.13.33-.2.49.72.19,1.44.37,2.16.56.03-.11.06-.23.09-.34l-2.06-.71Z"/>
  <path class="cls-1" d="m215.11,2.2c-2.92,0-8.3.03-13.69,0-11.45-.09-22.91-.21-34.36-.34-.89,0-1.79-.12-2.66-.29-.23-.05-.54-.49-.53-.74,0-.25.34-.62.6-.69.52-.14,1.09-.14,1.64-.13,10.01.05,20.02.09,30.02.18,11.04.1,22.08.25,33.12.37,15.25.16,30.5.3,45.75.45,12.56.13,25.12.26,37.68.39,15.11.15,30.23.29,45.34.44,12.7.13,25.39.25,38.09.39,9.66.11,19.32.24,28.98.37.54,0,1.11.05,1.62.22.24.08.53.5.52.75-.01.25-.34.63-.6.7-.52.14-1.09.15-1.64.15-8.49-.04-16.98-.07-25.47-.15-11.38-.11-22.77-.28-34.15-.4-14.84-.15-29.67-.28-44.51-.43-13.11-.13-26.22-.27-39.33-.41-13.66-.14-27.33-.26-40.99-.42-7.66-.09-15.32-.24-25.44-.4Z"/>
  <path class="cls-1" d="m116.04,299.34c-.41-1.12-.62-2.13-1.11-2.97-3.68-6.32-7.32-12.67-11.16-18.88-11.84-19.12-23.82-38.16-35.61-57.31-2.74-4.45-5.05-9.19-7.36-13.89-.73-1.49-1.54-1.95-3.13-1.96-18.22-.09-36.44-.24-54.66-.4-.89,0-1.9.29-3.01-.85,1.05-.06,1.69-.13,2.34-.13,11.53.03,23.05.05,34.58.13,14.7.1,29.4.25,44.1.37,20.08.16,40.16.29,60.25.46,5.17.04,10.35.18,15.52.29.51.01,1.02.12,1.53.58-.66.04-1.32.12-1.97.12-16.63-.04-33.27-.06-49.9-.15-14.28-.08-28.57-.25-42.85-.36-2.75-.02-2.81.11-1.64,2.59,4.09,8.63,9.22,16.65,14.25,24.73,11.76,18.93,23.52,37.86,35.24,56.81,1.7,2.75,3.19,5.64,4.72,8.5.4.74.9,1.62-.11,2.33Z"/>
  <path class="cls-1" d="m448.08,100.47c-.2.24-.5.62-.81.99-.35-.37-.9-.69-1-1.12-.5-2.15-.88-4.32-1.29-6.49-5.64-29.51-11.28-59.01-16.91-88.52-.08-.4-.23-.84-.15-1.22.09-.41.42-.77.64-1.15.36.25.87.43,1.05.77.27.54.34,1.19.46,1.79,4.99,26.26,9.98,52.53,14.96,78.79.9,4.74,1.81,9.47,2.71,14.21.1.54.19,1.08.34,1.93Z"/>
  <path class="cls-1" d="m225.17,140.75c0,4-.01,8,0,12,0,1.84.03,1.84,1.81,2.15,1.07.19,1.28.63.56,1.52-.91,1.12-1.96,2.13-2.9,3.23-.58.68-1.07,1.44-1.58,2.17-.95,1.37-1.24,1.41-2.3.23-1.65-1.84-3.29-3.69-4.92-5.56-.53-.61-.25-.98.46-1.16.58-.14,1.42-.11,1.68-.48.34-.5.29-1.3.29-1.98-.06-7.45-.15-14.89-.22-22.34,0-.69-.03-1.38.03-2.07.14-1.68.5-2.01,2.16-2.05,1.03-.02,2.07-.06,3.1-.06,1.62,0,1.79.13,1.81,1.75.04,3.59.02,7.17.02,10.76,0,.62,0,1.24,0,1.86h.01Zm-1.33,1.18h0c0-1.93,0-3.86,0-5.8,0-2.21.01-4.42-.01-6.62,0-.68.03-1.4-.85-1.68-2.24-.69-3.37.13-3.39,2.48,0,.48,0,.97,0,1.45.02,7.18.06,14.35.06,21.53,0,1.12.35,2.4-.95,3.18-.11.07-.13.54-.02.69.82,1.11,1.68,2.19,2.54,3.27.4.5.76.46,1.16-.04.87-1.07,1.8-2.09,2.64-3.18.17-.22.16-.94.09-.96-1.47-.44-1.26-1.65-1.26-2.72-.02-3.86,0-7.73,0-11.59Z"/>
  <path class="cls-1" d="m186.86,162.55c-2.15,0-2.33-.14-2.36-2.35-.08-5.1-.1-10.2-.19-15.3-.05-3.17-.21-6.33-.26-9.5-.02-1.12-.29-1.74-1.57-1.92-1.18-.17-1.24-.74-.44-1.73,1.2-1.48,2.37-3,3.62-4.44.28-.32.83-.5,1.28-.55.73-.08.49.61.68,1,.26.53.71.99,1.15,1.39.92.84,1.9,1.6,2.82,2.43.67.6.89,1.49-.02,1.86-1.31.53-1.23,1.48-1.24,2.51-.03,7.65-.06,15.3-.08,22.95,0,.14,0,.28,0,.41-.04,2.91-.37,3.24-3.39,3.25Zm-.38-33.4c-.3.26-.8.51-.98.89-.35.76-2.69,1.41-.25,2.51.18.08.11.77.12,1.18.12,6.21.23,12.41.33,18.62.04,2.41.05,4.83.09,7.24.01.78.04,1.56,1.14,1.59,1.1.03,1.85-.56,1.94-1.62.04-.55.02-1.1.02-1.65.03-7.59.05-15.18.12-22.76,0-.91.38-1.82.54-2.74.05-.28.08-.72-.08-.87-.8-.76-1.66-1.45-2.51-2.16-.1-.08-.25-.11-.5-.21Z"/>
  <path class="cls-1" d="m239.85,105.03c.07.44.18.88.19,1.33.15,4.96.31,9.92.4,14.89.17,9.31.29,18.62.45,27.92.12,7.1.28,14.2.42,21.3.13,6.62.26,13.24.41,19.85.08,3.38.2,6.75.28,10.13.01.63.23,1.36-.8,2.09-.06-.94-.12-1.58-.13-2.22-.15-8.34-.29-16.68-.44-25.03-.13-6.82-.27-13.65-.41-20.47-.14-7.1-.28-14.2-.42-21.3-.14-6.82-.26-13.65-.41-20.47-.05-2.07-.19-4.13-.23-6.2-.01-.62.15-1.24.24-1.86.15.01.3.03.44.04Z"/>
  <path class="cls-1" d="m545.31,296.12c-.58-.68-1.24-1.31-1.73-2.04-4.57-6.81-9.17-13.6-13.66-20.47-13.26-20.25-27.48-39.83-41.43-59.6-.63-.89-1.24-1.78-1.96-2.83,1.33-.13,1.54.83,1.95,1.4,3.98,5.54,7.87,11.15,11.88,16.68,14.81,20.44,28.74,41.47,42.64,62.53.89,1.35,1.8,2.68,2.69,4.02-.12.1-.25.21-.37.31Z"/>
  <path class="cls-1" d="m12.86,218.39c17.93,28.38,37.05,55.99,54.14,84.89.51.86.89,1.8,1.12,2.82-17.84-29.62-37.58-58.02-55.25-87.71Z"/>
  <path class="cls-1" d="m69.24,275.54c-.23-.36-.53-.7-.68-1.09-2.44-6.25-5.65-12.13-8.96-17.95-6.76-11.87-13.64-23.67-20.34-35.57-2.06-3.65-3.7-7.54-5.45-11.36-.39-.85-.48-1.86-.59-2.81-.03-.27.38-.58.58-.88.23.24.65.47.65.71.08,6.45,4.14,11.24,7.02,16.46,6.93,12.56,14.23,24.92,21.24,37.44,2.19,3.9,3.96,8.04,5.89,12.08.43.89.7,1.86,1.05,2.8-.14.06-.28.12-.41.18Z"/>
  <path class="cls-1" d="m556.83,274.27c-16.7-21.75-33.4-43.5-50.1-65.24.08-.09.17-.18.25-.27.26.16.59.26.76.48,16.65,21.45,33.63,42.65,49.46,64.72-.12.11-.25.21-.37.32Z"/>
  <path class="cls-1" d="m3.58,255.18c.25.3.53.59.75.91,10.37,14.95,20.76,29.89,31.07,44.88,2.73,3.97,5.2,8.12,7.74,12.22.63,1.03,1.05,2.18,1.24,3.51-.21-.19-.49-.34-.61-.58-3.85-7.59-8.86-14.45-13.64-21.44-8.45-12.34-17.04-24.58-25.57-36.87-.53-.76-.99-1.57-1.48-2.36.17-.09.33-.19.5-.28Z"/>
  <path class="cls-1" d="m524.62,209.87c.98.93,2.03,1.79,2.92,2.79,9.87,11.07,18.95,22.75,27.5,34.86.91,1.29,1.91,2.52,2.81,3.82.28.4.4.91.59,1.38-.42-.24-.97-.37-1.23-.73-1.56-2.1-3.04-4.26-4.57-6.38-8.11-11.23-16.58-22.18-25.81-32.51-.85-.96-1.78-1.85-2.68-2.77.15-.15.31-.3.46-.45Z"/>
  <path class="cls-1" d="m488.84,242.94c-5.32-3.78-27.17-32.97-27.3-36.48,4.12,6.7,8.58,12.76,13.21,18.72,4.64,5.97,9.39,11.84,14.1,17.76Z"/>
  <path class="cls-1" d="m153.5,228.97c-.15-.21-.34-.4-.46-.63-3.02-5.73-6.05-11.45-9.04-17.19-.76-1.46-1.4-2.99-2.06-4.5-.08-.19.08-.48.13-.73.27.14.69.23.77.44,2.44,6.56,6.65,12.21,9.55,18.52.59,1.28,1.4,2.49,1.52,3.93l-.4.15Z"/>
  <path class="cls-1" d="m563.25,240.97c-7-6.88-13.16-14.58-20.09-21.56,2.03.66,16.5,16.06,20.09,21.56Z"/>
  <path class="cls-1" d="m298.7,110.16c-3.2,3.13-6.39,6.26-9.59,9.39-.12-.11-.24-.22-.36-.34.6-1.44,1.97-2.27,3-3.36,1.03-1.1,2.12-2.17,3.27-3.13,1.14-.95,1.92-2.37,3.68-2.56Z"/>
  <path class="cls-1" d="m289.18,197.14c-.84.51-1.68,1.05-2.55,1.51-.09.05-.41-.32-.62-.5,1.27-1.49.37-3.26.62-4.88.07-.43.05-.87.07-1.31.15-.01.3-.03.45-.04.13,1.1.28,2.19.37,3.29.09.98-.33,2.35,2.12,1.24-.15.23-.31.45-.46.68Z"/>
  <path class="cls-1" d="m279.1,149.8c.74,1.52.93,5.8.35,7.61-.67-1.37-.87-5.77-.35-7.61Z"/>
  <path class="cls-1" d="m283.71,183.58c-.64-2.54-.8-5.11-.56-7.97.83,1.48,1.14,5.43.56,7.97Z"/>
  <path class="cls-1" d="m285.19,158.35c1.05,2.23.67,4.62.76,6.96-1.01-2.24-.92-4.59-.76-6.96Z"/>
  <path class="cls-1" d="m290.13,167.49c-.15-.2-.42-.39-.45-.61-.29-2.18-.56-4.36-.79-6.55-.02-.18.23-.4.35-.59.14.13.38.26.39.41.28,2.42.54,4.84.8,7.26-.1.03-.2.06-.3.09Z"/>
  <path class="cls-1" d="m286.31,187.17c-.18-2.38-.36-4.76-.54-7.14,1.07,1.04,1.45,4.91,1.01,7.11l-.47.03Z"/>
  <path class="cls-1" d="m286.25,169.11c.13,2.35.25,4.69.38,7.04-.17.01-.33.03-.5.04-.68-2.31-.66-4.68-.53-7.06.22,0,.44-.01.65-.02Z"/>
  <path class="cls-1" d="m298.96,195.59c-.53,1.05-1.06,2.1-1.66,3.3-1.14-2.05-1.2-2.52-.37-4.62.15.76.29,1.52.47,2.43.41-.53.75-.97,1.09-1.42.16.1.32.21.48.31Z"/>
  <path class="cls-1" d="m282.69,150.98c.22,2.32.45,4.64.67,6.96-.17.02-.34.04-.51.06-.79-2.26-.79-4.62-.77-6.98.2-.01.41-.03.61-.04Z"/>
  <path class="cls-1" d="m283.45,162.69c.15,2.16.31,4.33.43,6.5.01.21-.2.43-.31.64-.14-.13-.33-.24-.4-.39-.38-.94-.38-5.72.27-6.74Z"/>
  <path class="cls-1" d="m282.52,134.85c-.8-1.72-.98-5.07-.32-6.62.61,2.18.54,4.39.32,6.62Z"/>
  <path class="cls-1" d="m279.18,161.74c-.01,2.6.69,5.19.18,7.78-.64-1.19-.79-6.48-.18-7.78Z"/>
  <path class="cls-1" d="m285.69,134.2c-.95-2.11-.61-4.36-.65-6.57.77,2.13.85,4.33.65,6.57Z"/>
  <path class="cls-1" d="m291.61,196.98c-.79-1.57-1-4.46-.56-6.8.88,2.43.75,4.61.56,6.8Z"/>
  <path class="cls-1" d="m295.03,172.4c-.13-.41-.33-.82-.37-1.25-.15-1.55-.26-3.11-.35-4.67-.01-.2.21-.42.32-.62.14.12.39.23.4.35.18,2.04.6,4.08.41,6.13-.14.02-.27.04-.41.06Z"/>
  <path class="cls-1" d="m283.91,191.52c-.61-1.87-.49-3.79-.55-5.94.98,1.19,1.2,3.38.55,5.94Z"/>
  <path class="cls-1" d="m282.36,139.88c.29,1.86.38,3.71-.06,5.55-.16,0-.31,0-.47,0v-5.57c.18,0,.35.01.53.02Z"/>
  <path class="cls-1" d="m295.46,176.05c.22,2.1.44,4.21.66,6.31l-.53.06c-.59-2.06-.75-4.18-.73-6.33.2-.02.4-.03.59-.05Z"/>
  <path class="cls-1" d="m290.53,189.08v-5.64c.99,1.79.97,4.28,0,5.64Z"/>
  <path class="cls-1" d="m289.62,178.14c-.14-1.92-.29-3.83-.43-5.75.18-.01.36-.03.54-.04.8,1.86.27,3.84.56,5.75-.22.01-.44.03-.67.04Z"/>
  <path class="cls-1" d="m279.21,142.92c-.65-1.97-.18-3.91.43-5.86v5.88c-.14,0-.29-.02-.43-.02Z"/>
  <path class="cls-1" d="m279.72,133.8v-6.02c.16,0,.33,0,.49,0,.69,1.99-.37,4,0,5.99-.17,0-.33.02-.5.03Z"/>
  <path class="cls-1" d="m288.57,147.96c.81,1.6.94,3.23.37,4.91-.73-1.59-.51-3.26-.37-4.91Z"/>
  <path class="cls-1" d="m285.56,142.51c-.1-1.61-.21-3.22-.32-5.03,1.04,1.17,1.26,3.42.32,5.03Z"/>
  <path class="cls-1" d="m278.48,179.28v-4.89c1.04,1.39,1.04,3.5,0,4.89Z"/>
  <path class="cls-1" d="m292.72,131.79v4.08c-1.01-1.31-.71-2.71-.51-4.11.17,0,.34.02.51.03Z"/>
  <path class="cls-1" d="m292.96,145.64l-.5-4.35c1.44,1.27.85,2.84,1.18,4.27-.23.03-.45.05-.68.08Z"/>
  <path class="cls-1" d="m293.87,148.87c.12,1.43.23,2.86.35,4.29-.16.02-.32.03-.48.05-.81-1.35-.34-2.86-.48-4.29.21-.02.41-.03.62-.05Z"/>
  <path class="cls-1" d="m294.37,158.13c.13,1.41.26,2.81.43,4.64-1.07-1.3-1.23-2.39-.92-4.59.16-.02.33-.03.49-.05Z"/>
  <path class="cls-1" d="m285.46,154.51v-4.93c.61,1.63.85,3.27.61,4.94-.2,0-.41,0-.61-.01Z"/>
  <path class="cls-1" d="m296.4,190.6c-.2-1.34-.4-2.67-.63-4.26,1.16,1.19,1.4,2.63.63,4.26Z"/>
  <path class="cls-1" d="m288.76,139.87c-.13-1.39-.26-2.78-.41-4.4,1.13,1.12,1.19,1.61.41,4.4Z"/>
  <path class="cls-1" d="m278.96,184.23c.86,1.41.86,1.53-.01,3.94-.36-1.5-.14-2.7.01-3.94Z"/>
  <path class="cls-1" d="m288.69,131.92c-.14-.91-.28-1.83-.42-2.74,1.14.74,1.12,1.68.42,2.74Z"/>
  <path class="cls-1" d="m294.25,199.49c-.54-.32-1.1-.61-1.59-.99-.13-.1-.17-.55-.06-.66.14-.14.56-.23.69-.12.48.41.89.9,1.32,1.36-.12.14-.23.27-.35.41Z"/>
  <path class="cls-1" d="m279.45,195.12c-.52-.32-.62-.35-.62-.38.03-.93.07-1.86.13-2.79,0-.03.22-.04.34-.06.04.98.09,1.96.15,3.23Z"/>
  <path class="cls-1" d="m323.69,258.2c-3.31,0-6.62.02-9.94,0-1.85-.02-2.05-.14-2.13-1.98-.12-2.62-.13-5.24-.07-7.86.04-1.54.36-1.78,1.88-1.84,1.59-.06,3.17-.03,4.76-.07,4.69-.13,9.37-.29,14.05-.39.47-.01.95.25,1.42.39-.47.19-.92.47-1.4.55-.61.1-1.24.02-1.86.03-5.37.14-10.75.28-16.12.44-1.63.05-1.82.19-1.84,1.79-.03,2.34.04,4.69.12,7.03,0,.28.3.55.45.83.19-.21.47-.39.55-.63.28-.85.93-.94,1.66-.86.68.07.95.47.79,1.16-.02.1.23.37.29.35.17-.06.42-.2.45-.34.09-.47.1-.96.12-1.44.07-1.93.12-3.86.19-5.79.03-.98.46-1.48,1.53-1.5,2.96-.05,5.92-.2,8.89-.26,1.24-.02,1.57.32,1.6,1.61.05,2,0,4,.02,6,.02,1.68.11,1.76,1.74,1.82.69.03,1.39-.05,2.07.02.77.08,1.53.26,2.29.4-.61,1.02-1.59.49-2.4.52-2,.08-4,.03-6,.03-1.03,0-2.07,0-3.1,0h0Zm-1.27-5.58c.12.07.23.13.35.2-.25,1.01-.48,2.03-.78,3.03-.15.5-.09.85.48.85,1.51,0,3.03,0,4.54-.13.36-.03.93-.53.97-.86.23-1.99.4-4-.13-6.03-.57.75-.96,1.54-1.37,2.32-.36.67-.74,1.32-1.12,1.97-.1.17-2.06.52-2.04.44.1-.44.19-.9.4-1.29.59-1.09,1.26-2.14,1.87-3.21.34-.6.3-1.13-.53-1.12-1.93,0-3.85.05-5.78.14-.85.04-1.38.47-1.36,1.45.03,1.72-.04,3.44,0,5.17,0,.36.21.97.43,1.02.4.09.98-.02,1.29-.29.51-.44.88-1.05,1.29-1.6.51-.68,1-1.37,1.5-2.06Z"/>
  <path class="cls-1" d="m334.87,256.52c-.11-.23-.31-.45-.32-.69-.11-2.82-.2-5.64-.27-8.46,0-.32.14-.66.26-.98.04-.09.26-.21.33-.17.15.07.36.23.36.36,0,.89-.07,1.79-.08,2.68-.01,2.39,0,4.79,0,7.18-.09.02-.19.04-.28.06Z"/>
  <path class="cls-1" d="m314.69,249.39c.49.57.83.97,1.17,1.38-.42.26-.89.77-1.25.7-.47-.09-.85-.63-1.27-.98.38-.31.76-.62,1.35-1.1Z"/>
  <path class="cls-1" d="m332.11,256.04c-.56-.44-.93-.72-1.3-1,.54-.36,1.04-.8,1.63-1.02.17-.07.58.49.88.77-.36.37-.72.74-1.22,1.26Z"/>
  <path class="cls-1" d="m331.82,250.99c-.53-.5-1.1-.78-1.12-1.1-.05-.88.75-1.11,1.42-1.13.34-.01.69.46,1.04.71-.4.46-.81.92-1.34,1.52Z"/>
  <path class="cls-1" d="m315.9,253.87c-.46.31-.89.76-1.4.88-.26.06-.67-.46-1.01-.71.29-.32.54-.84.88-.91.44-.09.95.17,1.44.29.03.15.06.3.09.45Z"/>
  <path class="cls-1" d="m331.83,251.59c.48.28.85.49,1.22.7-.41.25-.81.67-1.24.71-.34.03-.73-.39-1.1-.61.34-.24.69-.49,1.11-.79Z"/>
  <path class="cls-1" d="m213.83,280.92c-.3-.67-.12-1.22.45-1.63,1.4-.99,2.77-2.05,4.26-2.89,1.29-.73,1.83-.53,2.31.85.39,1.1,1.16,1.02,1.97,1.02,3.85,0,7.71,0,11.56,0,.55,0,1.1,0,1.65.03.96.05,1.63.68,1.76,1.48.22,1.27.19,2.6.17,3.9-.02.73-.59.71-1.21.7-4.61-.04-9.22-.03-13.83-.02-1.62,0-1.57.04-1.7,1.6-.04.47-.33,1.13-.7,1.32-.35.18-1.08.01-1.43-.26-1.84-1.44-3.65-2.93-5.4-4.48-.98-.86-.91-1.05.15-1.64,1.91,1.65,3.82,3.3,5.84,5.05.06-2.66.06-2.68,2.6-2.7,2.96-.02,5.92.01,8.88-.02,1.31-.02,2.61-.18,3.92-.22,1.16-.03,1.54-.61,1.52-1.71-.04-1.62-.23-1.89-1.92-1.9-4.48-.02-8.95-.02-13.43.03-.89.01-1.47-.1-1.57-1.11-.09-.95-.64-.96-1.28-.51-.96.67-1.88,1.39-2.84,2.05-.56.38-1.16.7-1.74,1.05Z"/>
  <path class="cls-1" d="m335.4,223.65c4.14,0,8.28,0,12.42,0,1.12,0,2.2.17,2.35-1.52.07-.82,1.04-1.01,1.64-.49,1.82,1.58,3.56,3.25,5.31,4.92.42.4.3.8-.14,1.22-1.54,1.47-3.03,3.01-4.56,4.5-.99.98-1.55.95-2.16-.35-.4-.85-.94-1.05-1.77-1.08-3.31-.11-6.62-.27-9.93-.37-5.03-.15-10.07-.27-15.1-.41-2.09-.06-2.29-.29-2.41-2.43-.06-1.03-.09-2.07-.19-3.09-.08-.86.28-1.03,1.08-1.02,4.48.04,8.97.02,13.45.02,0,.03,0,.07,0,.1Zm1.23,1.26c0-.05,0-.11,0-.16-4.2,0-8.41-.02-12.61.02-.48,0-1.2.21-1.4.55-1.01,1.77.09,3.58,2.13,3.67.21,0,.41,0,.62,0,7.85.18,15.7.35,23.55.53.94.02,1.97-.16,2.55.94.06.11.58.08.8-.04.29-.16.5-.46.74-.71.84-.9,1.68-1.8,2.51-2.7-.89-.92-1.78-1.85-2.68-2.77-.67-.69-1.26-1.3-1.95.09-.18.37-1.08.53-1.66.54-4.2.04-8.41.02-12.61.02Z"/>
  <path class="cls-1" d="m368.85,152.97c0,7.58,0,15.16,0,22.74,0,2.01-.29,2.21-2.28,2.17-1.11-.02-1.64-.44-1.67-1.58-.04-1.45-.23-2.89-.24-4.33-.07-10.68-.09-21.36-.17-32.05-.02-3.1-.17-6.2-.25-9.29-.02-.69,0-1.38.04-2.07.05-.8.48-1.19,1.3-1.31,2.5-.36,2.94-.13,3,2.35.11,4.27.1,8.54.11,12.82.02,3.51,0,7.03,0,10.54.05,0,.1,0,.14,0Zm-.9-.61h-.15c0-4.14,0-8.27,0-12.41,0-3.52.03-7.03-.02-10.55,0-.47-.24-1.2-.58-1.35-.41-.19-1.22-.07-1.53.24-.37.36-.54,1.07-.53,1.63.04,3.86.2,7.71.23,11.57.07,10.96.1,21.92.15,32.88,0,.55-.09,1.14.09,1.64.12.36.63.83.94.81.44-.02,1.05-.34,1.25-.72.24-.44.15-1.07.15-1.62,0-7.38,0-14.75,0-22.13Z"/>
  <path class="cls-1" d="m376.72,153.05c0,7.31,0,14.62,0,21.94,0,2.54-.02,2.54-2.51,2.56-.41,0-.83-.03-1.24,0-.99.06-1.35-.46-1.34-1.38,0-.76-.06-1.52-.06-2.28-.15-14.48-.31-28.97-.42-43.45-.03-3.38-.63-3.32,3.62-3.26.99.01,1.55.41,1.59,1.46.05,1.38.21,2.75.21,4.13.02,6.76.01,13.52.01,20.28.05,0,.1,0,.16,0Zm-.9-.65s-.09,0-.14,0c0-7.52,0-15.03,0-22.55,0-1.89-.29-2.08-2.18-2.01-1.08.04-1.49.53-1.47,1.53,0,.41-.01.83,0,1.24.14,14.68.28,29.36.42,44.05,0,.07,0,.14,0,.21.07,2,.26,2.03,2.2,1.8,1.44-.17,1.17-1.1,1.17-1.93.02-7.45,0-14.89,0-22.34Z"/>
  <path class="cls-1" d="m355.19,152.74c0,7.1,0,14.19,0,21.29,0,.48.01.97,0,1.45-.07,2.15-1.56,3.23-3.53,2.51-.27-.1-.5-.45-.62-.74-.12-.31-.11-.68-.12-1.02-.03-.62-.04-1.24-.05-1.86-.15-14.54-.3-29.07-.43-43.61-.03-3.63-.25-3.04,3.5-3.22.63-.03.87.21.9.81.05,1.38.19,2.75.19,4.13.02,6.75,0,13.51,0,20.26.05,0,.11,0,.16,0Zm-.9.02s-.09,0-.14,0c0-1.24,0-2.48,0-3.72,0-6.41,0-12.83,0-19.24,0-.94-.18-1.61-1.35-1.59-1.07.01-1.5.51-1.48,1.52,0,.76-.02,1.52,0,2.28.14,14.27.28,28.55.42,42.82,0,.48-.09,1.02.1,1.43.19.41.62.88,1.04.99.63.18,1.25-.08,1.34-.89.05-.48.07-.96.07-1.44,0-7.38,0-14.76,0-22.14Z"/>
  <path class="cls-1" d="m362.08,152.53c0,7.17,0,14.34,0,21.52,0,.55,0,1.1,0,1.66-.05,2-1.33,2.86-3.27,2.15-.28-.1-.56-.41-.67-.68-.15-.37-.18-.8-.2-1.21-.04-.76-.05-1.52-.06-2.28-.14-14.14-.28-28.28-.42-42.42,0-.48,0-.97,0-1.45.01-2.44.5-2.84,2.96-2.55.94.11,1.35.55,1.34,1.46,0,.69.03,1.38.03,2.07,0,7.24,0,14.49,0,21.73.1,0,.19,0,.29,0Zm-.9.21c-.09,0-.17,0-.26,0,0-2,0-3.99,0-5.99,0-5.17,0-10.34,0-15.51,0-.62,0-1.24-.04-1.86-.04-.73-.39-1.13-1.17-1.15-.86-.02-1.29.37-1.32,1.21-.02.69-.04,1.38-.03,2.07.14,14.48.28,28.95.42,43.43,0,.55-.05,1.15.17,1.62.15.33.71.65,1.09.64.37,0,.81-.37,1.06-.7.17-.23.08-.67.08-1.01,0-7.58,0-15.17,0-22.75Z"/>
  <path class="cls-1" d="m358.04,184.41c0-1.38-.06-2.76.02-4.14.07-1.4.44-1.65,2.03-1.67,1.55-.01,1.91.22,1.96,1.71.09,2.62.08,5.24.1,7.86.02,1.65-.6,1.71-2.75,1.94-1.08.12-1.3-.21-1.36-1.78-.05-1.31,0-2.62,0-3.93h0Zm.86-.12h.03c0,1.23,0,2.47,0,3.7,0,.81.25,1.31,1.17,1.3.91-.01,1.2-.54,1.19-1.32-.02-2.4-.06-4.8-.08-7.2,0-.86-.4-1.25-1.27-1.21-.81.04-1.04.53-1.03,1.23,0,1.17,0,2.33,0,3.5Z"/>
  <path class="cls-1" d="m355.2,184.84c0,1.23.03,2.47,0,3.7-.04,1.48-.24,1.66-1.66,1.75-2.2.14-2.51-.13-2.54-2.36-.03-2.19-.04-4.39,0-6.59.05-2.23.56-2.59,2.77-2.42.95.07,1.38.49,1.38,1.39.01,1.51,0,3.02,0,4.53.02,0,.03,0,.05,0Zm-.64.04s.05,0,.08,0c-.11-1.43-.2-2.87-.35-4.3-.08-.77-.62-.98-1.33-.96-.78.02-1.11.42-1.1,1.16.01,2.47.03,4.93.03,7.4,0,.91.54,1.16,1.33,1.16.8,0,1.33-.27,1.33-1.17,0-1.1,0-2.19,0-3.29Z"/>
  <path class="cls-1" d="m368.89,184.59c0,1.38-.03,2.75.01,4.13.03.88-.29,1.29-1.18,1.24-.41-.02-.83-.03-1.24,0-1.17.09-1.58-.48-1.57-1.6.04-2.68-.01-5.37.04-8.05.03-1.45.38-1.71,1.93-1.72,1.59-.01,1.91.23,1.95,1.66.05,1.44.01,2.89.01,4.33.02,0,.04,0,.05,0Zm-.67.23s-.04,0-.06,0c0-.96.04-1.92-.01-2.88-.03-.61-.04-1.3-.34-1.79-.21-.34-.88-.51-1.36-.53-.23-.01-.69.5-.69.78,0,2.6.05,5.21.11,7.81.02.77.5,1.04,1.24,1.04.79,0,1.12-.4,1.12-1.14,0-1.1,0-2.19,0-3.29Z"/>
  <path class="cls-1" d="m214.36,249.7c0-1.24-.08-2.48.02-3.71.15-1.82.46-2.06,2.32-2.1,4.13-.09,8.26-.19,12.39-.25,1.07-.01,1.83-.04,1.73-1.52-.08-1.21.62-1.51,1.55-.72,1.74,1.46,3.39,3.03,5.05,4.58.47.44.77.93.12,1.57-1.57,1.54-3.08,3.15-4.64,4.69-.99.98-1.16.98-1.81-.33-.47-.94-1.23-.75-1.94-.76-4.13-.07-8.26-.1-12.4-.14-.48,0-.97.02-1.45-.01-.8-.05-1.34-.35-.94-1.3Zm18.19-6.38c-.13.15-.34.28-.35.42-.08,1.47-1.17,1.27-2.11,1.28-3.92.01-7.84,0-11.76.01-2.55.01-2.72.2-2.68,2.68.03,1.93.07,2,1.95,2.01,3.85.02,7.7,0,11.55.03.75,0,1.77-.21,2.21.18,1.22,1.08,1.81.27,2.4-.55.74-1.02,2.65-1.6,2.25-2.86-.36-1.13-1.88-1.9-2.9-2.82-.15-.13-.34-.23-.56-.38Z"/>
</svg>